<svg width="328" height="162" viewBox="0 0 328 162" fill="none" xmlns="http://www.w3.org/2000/svg">
<path fill-rule="evenodd" clip-rule="evenodd" d="M88.5531 0.39851C77.6526 2.62958 70.4986 11.9328 71.3311 22.7928C72.1221 33.1131 80.1814 41.3327 90.4488 42.2897C104.042 43.5573 115.563 31.2587 113.305 17.8912C111.322 6.15502 99.8928 -1.92267 88.5531 0.39851ZM33.8294 42.4778C16.7009 44.0014 5.77174 51.8753 3.8136 64.1018L3.50954 66.0002H18.3786C32.2272 66.0002 33.2486 65.9447 33.2579 65.1915C33.2634 64.7464 33.6536 63.5353 34.1247 62.4992C35.284 59.9511 37.5046 58.8971 41.1603 59.1614C45.6236 59.4835 47.1319 61.6568 47.1319 67.7654V71.4092L39.6113 71.728C22.4004 72.4586 12.9041 75.0617 6.76076 80.7327C1.85963 85.2577 -0.506703 92.3672 0.0907806 100.773C0.873387 111.784 6.20447 118.651 16.3751 121.75C20.5061 123.008 29.442 122.876 34.5125 121.481C38.8115 120.298 42.7519 118.123 45.5681 115.38C47.7507 113.254 47.69 113.189 48.3079 118.334L48.6268 120.991H64.8005H80.9742L80.8044 92.456C80.6201 61.4197 80.641 61.6817 77.8924 56.0144C76.6076 53.3651 72.9699 49.7029 69.7604 47.8272C62.1005 43.3512 47.8553 41.2306 33.8294 42.4778ZM227.959 42.4469C225.247 43.128 224.012 43.9311 219.528 47.9307C217.237 49.9742 215.206 51.6526 215.015 51.6604C214.824 51.6683 214.668 49.9072 214.668 47.7468V43.8189H197.081H179.495V82.4101V121.002L197.804 120.881L216.112 120.76L216.102 107.821C216.097 100.705 216.25 91.2281 216.442 86.7618C216.769 79.1916 216.88 78.4642 218.079 76.0173C219.074 73.9868 219.855 73.1051 221.529 72.1227C223.457 70.9905 224.121 70.8574 227.627 70.9004C229.908 70.9281 233.277 71.3652 235.647 71.9401C237.894 72.4854 239.928 72.9318 240.166 72.9318C240.428 72.9318 240.55 67.3209 240.476 58.7219L240.354 44.512L238.271 43.4829C235.87 42.2962 230.647 41.7717 227.959 42.4469ZM278.931 42.4552C259.45 44.1867 245.616 55.2468 241.676 72.2386C240.365 77.8976 240.497 88.486 241.946 93.7268C245.232 105.612 252.496 113.941 263.744 118.72C272.94 122.627 286.919 123.775 299.346 121.645C311.308 119.593 319.721 114.384 323.709 106.559C324.992 104.042 326.188 99.3705 326.198 96.84L326.205 95.1006L310.854 95.2226L295.504 95.3442L294.817 97.8128C294.418 99.2439 293.524 100.921 292.69 101.804C290.291 104.344 285.502 105.095 282.007 103.479C278.116 101.681 276.337 98.4093 275.887 92.2249L275.626 88.6436H301.61H327.593V82.1546C327.593 75.1721 326.924 70.8334 324.997 65.3125C323.304 60.4627 321.3 57.4086 316.923 53.0102C313.63 49.7015 312.227 48.6696 308.592 46.8827C300.206 42.7602 290.984 41.3835 278.931 42.4552ZM120.526 42.9441C108.67 44.6705 98.4304 50.3586 92.6707 58.4183C90.0776 62.0463 88.1408 66.1993 86.8717 70.8523C86.0239 73.9623 85.8619 75.7964 85.8531 82.4051C85.8401 91.7332 86.558 95.0969 90.0411 102.036C95.062 112.038 105.846 119.445 118.633 121.671C131.659 123.939 147.72 122.376 156.703 117.966C160.521 116.092 164.851 112.319 166.972 109.019C169.638 104.87 171.596 98.6432 172.326 91.9939L172.643 89.1057H155.541H138.438L138.128 92.8173C137.568 99.5221 135.306 103.459 131.617 104.151C124.394 105.504 121.608 98.0614 122.266 79.1703C122.582 70.0829 122.992 67.3292 124.487 64.246C127.003 59.056 133.431 59.1951 136.365 64.5024C137.012 65.673 137.645 67.9886 137.972 70.3763L138.51 74.3181H155.305H172.101L171.825 72.3542C171.673 71.2742 171.346 69.1425 171.098 67.6175C168.889 54.0042 159.099 45.6211 142.47 43.1035C137.673 42.3775 125.047 42.2856 120.526 42.9441ZM290.131 61.2635C293.378 62.9109 294.349 64.5902 294.636 69.0556L294.855 72.4697H285.356C278.057 72.4697 275.805 72.3325 275.63 71.8773C275.188 70.7289 276.191 66.3638 277.35 64.3897C278.194 62.9511 279.197 62.057 280.934 61.1928C284.163 59.5861 286.865 59.6068 290.131 61.2635ZM46.3997 86.6135C47.3897 86.9929 47.423 94.8904 46.4488 98.1672C44.9701 103.139 40.1379 105.213 35.2243 102.986C29.3758 100.335 29.6938 91.017 35.7399 87.8649C37.5883 86.9014 44.9086 86.0419 46.3997 86.6135ZM128.489 139.091C122.505 139.877 119.053 143.36 118.533 149.139C118.083 154.15 119.912 157.818 123.971 160.04C126.351 161.343 126.809 161.426 131.594 161.426C136.161 161.426 136.9 161.307 138.768 160.271C141.04 159.01 142.933 156.025 142.933 153.703V152.415H138.291C134.967 152.415 133.604 152.579 133.494 152.992C132.707 155.95 132.453 156.348 131.27 156.486C129.434 156.699 128.862 155.239 128.862 150.335C128.862 145.424 129.433 143.972 131.278 144.185C132.236 144.295 132.639 144.698 133.042 145.945L133.565 147.563L138.312 147.695L143.06 147.827L142.791 146.174C141.923 140.832 136.329 138.062 128.489 139.091ZM197.182 139.101C190.775 140.074 187.352 144.029 187.373 150.436C187.39 155.737 189.882 159.309 194.708 160.951C197.343 161.847 202.712 161.859 205.694 160.975C208.78 160.059 211.428 157.187 211.428 154.756C211.428 153.859 211.166 153.801 207.082 153.801C202.839 153.801 202.729 153.828 202.447 154.949C202.128 156.217 200.535 156.851 198.94 156.345C197.928 156.024 197.081 154.431 197.081 152.847C197.081 152 197.473 151.953 204.486 151.953H211.891L211.888 149.989C211.882 145.238 209.89 141.822 206.156 140.161C203.369 138.922 200.553 138.59 197.182 139.101ZM148.953 140.024C146.949 141.055 144.784 143.565 144.784 144.858C144.784 145.336 145.74 145.483 148.838 145.483C152.391 145.483 152.963 145.369 153.47 144.559C154.338 143.171 156.268 143.349 156.848 144.869C157.606 146.863 157.168 147.168 153.091 147.481C146.534 147.986 143.824 150.086 143.788 154.687C143.766 157.551 144.576 159.246 146.635 160.64C148.018 161.576 148.697 161.713 151.274 161.572C153.459 161.453 154.691 161.125 155.734 160.383C157.15 159.376 157.179 159.374 157.416 160.277C157.634 161.113 158.055 161.195 162.096 161.195H166.536V152.862C166.536 143.024 166.242 141.914 163.216 140.332C161.572 139.473 160.303 139.256 156.123 139.12C151.523 138.971 150.832 139.058 148.953 140.024ZM181.382 140.21C180.011 141.361 179.958 141.37 179.958 140.441C179.958 139.521 179.721 139.476 174.867 139.476H169.776V150.351V161.225L174.982 161.095L180.189 160.964L180.42 154.571C180.693 147.044 180.943 146.608 184.701 147.119L186.9 147.418V143.216V139.014H184.853C183.325 139.014 182.444 139.318 181.382 140.21ZM201.908 144.823C202.308 145.223 202.635 145.95 202.635 146.44C202.635 147.222 202.292 147.332 199.858 147.332C196.858 147.332 196.513 146.961 197.802 145.124C198.657 143.904 200.828 143.745 201.908 144.823ZM157.106 152.935C156.947 153.729 156.817 154.669 156.817 155.024C156.817 155.379 156.323 155.894 155.718 156.169C154.115 156.899 152.652 155.997 152.652 154.28C152.652 152.486 153.758 151.491 155.751 151.491C157.346 151.491 157.387 151.534 157.106 152.935Z" fill="white"/>
</svg>
