<svg width="50" height="50" viewBox="0 0 50 50" fill="none" xmlns="http://www.w3.org/2000/svg">
<circle cx="25" cy="25" r="25" fill="#F4ECEC"/>
<path d="M19.7858 33.3167C19.7858 33.8284 19.9752 34.1975 20.3541 34.4241C20.5651 34.5491 20.8053 34.6116 21.0748 34.6116C21.4811 34.6116 21.7897 34.4788 22.0006 34.2131C22.0592 34.1389 22.1061 34.0588 22.1413 33.9729L21.9889 33.926C21.86 34.2073 21.6452 34.3752 21.3444 34.4299C21.2819 34.4417 21.2194 34.4475 21.1569 34.4475C20.8248 34.4475 20.6002 34.26 20.483 33.885C20.4323 33.717 20.4069 33.5198 20.4069 33.2932C20.4108 32.5198 20.6373 32.1311 21.0866 32.1272C21.2819 32.1272 21.401 32.2112 21.444 32.3792C21.4518 32.4065 21.4596 32.4534 21.4674 32.5198C21.4948 32.6877 21.5397 32.7932 21.6022 32.8362C21.6491 32.8635 21.7057 32.8792 21.7721 32.8831C21.9401 32.887 22.0397 32.8206 22.0709 32.6838C22.0788 32.6565 22.0827 32.6311 22.0827 32.6077C22.0827 32.4241 21.9674 32.2678 21.737 32.1389C21.5455 32.0334 21.3248 31.9807 21.0748 31.9807C20.6022 31.9807 20.2487 32.1565 20.0143 32.5081C19.862 32.7346 19.7858 33.0042 19.7858 33.3167ZM24.2157 34.6116C24.4891 34.6116 24.6571 34.4885 24.7196 34.2424C24.7391 34.1721 24.7509 34.092 24.7548 34.0022L24.6024 33.9963C24.5751 34.2737 24.5009 34.4143 24.3798 34.4182C24.286 34.4104 24.2372 34.3108 24.2333 34.1194V32.8889C24.2255 32.2874 23.8954 31.9846 23.243 31.9807C22.7704 31.9807 22.4618 32.0862 22.3173 32.2971C22.2743 32.3635 22.2528 32.4299 22.2528 32.4963C22.2528 32.6213 22.3114 32.7014 22.4286 32.7366C22.4598 32.7444 22.4911 32.7483 22.5223 32.7483C22.6434 32.7483 22.7274 32.6838 22.7743 32.5549C22.7821 32.5354 22.7919 32.5061 22.8036 32.467C22.8544 32.3108 22.9169 32.2112 22.9911 32.1682C23.0458 32.1409 23.1122 32.1272 23.1903 32.1272C23.5067 32.135 23.6669 32.3401 23.6708 32.7424V33.1174C22.7333 33.1292 22.2157 33.342 22.118 33.7561C22.1063 33.8108 22.1005 33.8674 22.1005 33.926C22.1005 34.2385 22.2352 34.4475 22.5048 34.553C22.6063 34.592 22.7177 34.6116 22.8387 34.6116C23.1356 34.6116 23.3739 34.51 23.5536 34.3069C23.6122 34.2366 23.6571 34.1624 23.6884 34.0842C23.747 34.4319 23.9227 34.6077 24.2157 34.6116ZM23.079 34.3713C22.8641 34.3713 22.7372 34.2444 22.6981 33.9905C22.6903 33.9436 22.6864 33.8928 22.6864 33.8381C22.6864 33.5725 22.827 33.4045 23.1083 33.3342C23.2528 33.2991 23.4403 33.2795 23.6708 33.2756V33.7854C23.6044 34.0588 23.4677 34.2405 23.2606 34.3303C23.1981 34.3577 23.1376 34.3713 23.079 34.3713ZM26.0909 34.4065H25.6632V33.2756C25.6632 32.8694 25.7667 32.5745 25.9738 32.3909C26.0363 32.3362 26.0929 32.3069 26.1437 32.303C26.1984 32.303 26.253 32.3499 26.3077 32.4436C26.3741 32.5608 26.4405 32.6311 26.507 32.6545C26.5343 32.6624 26.5636 32.6663 26.5948 32.6663C26.7316 32.6663 26.8234 32.6018 26.8702 32.4729C26.882 32.4377 26.8878 32.4026 26.8878 32.3674C26.8878 32.1838 26.796 32.0686 26.6124 32.0217C26.5695 32.0139 26.5265 32.01 26.4835 32.01C26.2491 32.01 26.0382 32.1077 25.8507 32.303C25.7648 32.3967 25.6984 32.5022 25.6515 32.6194L25.6222 32.051H24.7023V32.1975H25.1007V34.0725C25.1007 34.2483 25.0441 34.3518 24.9308 34.3831C24.88 34.3987 24.8038 34.4065 24.7023 34.4065V34.553H26.2374C26.2374 34.467 26.212 34.4202 26.1613 34.4124C26.1417 34.4084 26.1183 34.4065 26.0909 34.4065ZM28.1478 32.1272C28.3978 32.1272 28.556 32.2542 28.6224 32.5081C28.642 32.5823 28.6517 32.6584 28.6517 32.7366C28.6517 32.928 28.5716 33.0452 28.4115 33.0881C28.3216 33.1116 28.1947 33.1194 28.0306 33.1116L27.5091 33.0999C27.5248 32.5999 27.6693 32.2893 27.9427 32.1682C28.0052 32.1409 28.0736 32.1272 28.1478 32.1272ZM29.1966 33.9729L29.056 33.926C28.9271 34.1956 28.7279 34.3616 28.4584 34.4241C28.3959 34.4397 28.3334 34.4475 28.2709 34.4475C27.7826 34.4475 27.5287 34.0569 27.5091 33.2756C27.5091 33.2717 27.5091 33.2678 27.5091 33.2639L28.1478 33.2756C28.683 33.2874 29.017 33.2229 29.1498 33.0823C29.2123 33.0081 29.2435 32.9143 29.2435 32.801C29.2435 32.5081 29.097 32.2854 28.8041 32.1331C28.6088 32.0315 28.388 31.9807 28.142 31.9807C27.6771 31.9807 27.3314 32.1584 27.1048 32.5139C26.9603 32.7405 26.888 33.0042 26.888 33.3049C26.888 33.8245 27.0775 34.1975 27.4564 34.4241C27.6634 34.5491 27.8978 34.6116 28.1595 34.6116C28.6009 34.6116 28.9193 34.4534 29.1146 34.137C29.1459 34.0823 29.1732 34.0276 29.1966 33.9729Z" fill="#314862"/>
<path d="M17.96 28.7092C18.6892 28.7092 19.1371 28.3811 19.3038 27.7249C19.3558 27.5374 19.3871 27.3238 19.3975 27.0842L18.9913 27.0686C18.9183 27.8082 18.7204 28.1832 18.3975 28.1936C18.1475 28.1728 18.0173 27.9071 18.0069 27.3967V24.1155C17.986 22.5113 17.1058 21.704 15.3663 21.6936C14.1058 21.6936 13.2829 21.9749 12.8975 22.5374C12.7829 22.7144 12.7256 22.8915 12.7256 23.0686C12.7256 23.4019 12.8819 23.6155 13.1944 23.7092C13.2777 23.7301 13.361 23.7405 13.4444 23.7405C13.7673 23.7405 13.9913 23.5686 14.1163 23.2249C14.1371 23.1728 14.1631 23.0946 14.1944 22.9905C14.3298 22.5738 14.4965 22.3082 14.6944 22.1936C14.8402 22.1207 15.0173 22.0842 15.2256 22.0842C16.0694 22.1051 16.4965 22.6519 16.5069 23.7249V24.7249C14.0069 24.7561 12.6267 25.3238 12.3663 26.428C12.335 26.5738 12.3194 26.7249 12.3194 26.8811C12.3194 27.7144 12.6788 28.2717 13.3975 28.553C13.6683 28.6571 13.9652 28.7092 14.2881 28.7092C15.0798 28.7092 15.7152 28.4384 16.1944 27.8967C16.3506 27.7092 16.4704 27.5113 16.5538 27.303C16.71 28.2301 17.1788 28.6988 17.96 28.7092ZM14.9288 28.0686C14.3558 28.0686 14.0173 27.7301 13.9131 27.053C13.8923 26.928 13.8819 26.7926 13.8819 26.6467C13.8819 25.9384 14.2569 25.4905 15.0069 25.303C15.3923 25.2092 15.8923 25.1571 16.5069 25.1467V26.5061C16.3298 27.2353 15.9652 27.7196 15.4131 27.9592C15.2465 28.0321 15.085 28.0686 14.9288 28.0686ZM19.3981 25.2561C19.3981 26.6207 19.9033 27.6051 20.9137 28.2092C21.4762 28.5426 22.1169 28.7092 22.8356 28.7092C23.919 28.7092 24.7419 28.3551 25.3044 27.6467C25.4606 27.4488 25.5856 27.2353 25.6794 27.0061L25.2731 26.8811C24.9294 27.6311 24.3565 28.079 23.5544 28.2249C23.3877 28.2561 23.221 28.2717 23.0544 28.2717C22.169 28.2717 21.57 27.7717 21.2575 26.7717C21.1221 26.3238 21.0544 25.7978 21.0544 25.1936C21.0648 23.1311 21.669 22.0946 22.8669 22.0842C23.3877 22.0842 23.7054 22.3082 23.82 22.7561C23.8408 22.829 23.8617 22.954 23.8825 23.1311C23.9554 23.579 24.0752 23.8603 24.2419 23.9749C24.3669 24.0478 24.5179 24.0894 24.695 24.0999C25.1429 24.1103 25.4085 23.9332 25.4919 23.5686C25.5127 23.4957 25.5231 23.428 25.5231 23.3655C25.5231 22.8759 25.2158 22.4592 24.6012 22.1155C24.0908 21.8342 23.5023 21.6936 22.8356 21.6936C21.5752 21.6936 20.6325 22.1624 20.0075 23.0999C19.6012 23.704 19.3981 24.4228 19.3981 25.2561ZM29.2425 28.1624H28.1019V25.1467C28.1019 24.0634 28.3779 23.2769 28.93 22.7874C29.0967 22.6415 29.2477 22.5634 29.3831 22.553C29.529 22.553 29.6748 22.678 29.8206 22.928C29.9977 23.2405 30.1748 23.428 30.3519 23.4905C30.4248 23.5113 30.5029 23.5217 30.5863 23.5217C30.9508 23.5217 31.1956 23.3499 31.3206 23.0061C31.3519 22.9124 31.3675 22.8186 31.3675 22.7249C31.3675 22.2353 31.1227 21.928 30.6331 21.803C30.5185 21.7821 30.404 21.7717 30.2894 21.7717C29.6644 21.7717 29.1019 22.0321 28.6019 22.553C28.3727 22.803 28.1956 23.0842 28.0706 23.3967L27.9925 21.8811H25.5394V22.2717H26.6019V27.2717C26.6019 27.7405 26.4508 28.0165 26.1488 28.0999C26.0133 28.1415 25.8102 28.1624 25.5394 28.1624V28.553H29.6331C29.6331 28.3238 29.5654 28.1988 29.43 28.178C29.3779 28.1676 29.3154 28.1624 29.2425 28.1624ZM34.7275 22.0842C35.3942 22.0842 35.816 22.4228 35.9931 23.0999C36.0452 23.2978 36.0713 23.5009 36.0713 23.7092C36.0713 24.2196 35.8577 24.5321 35.4306 24.6467C35.191 24.7092 34.8525 24.7301 34.415 24.7092L33.0244 24.678C33.066 23.3446 33.4515 22.5165 34.1806 22.1936C34.3473 22.1207 34.5296 22.0842 34.7275 22.0842ZM37.5244 27.0061L37.1494 26.8811C36.8056 27.5999 36.2744 28.0426 35.5556 28.2092C35.389 28.2509 35.2223 28.2717 35.0556 28.2717C33.7535 28.2717 33.0765 27.2301 33.0244 25.1467C33.0244 25.1363 33.0244 25.1259 33.0244 25.1155L34.7275 25.1467C36.1546 25.178 37.0452 25.0061 37.3994 24.6311C37.566 24.4332 37.6494 24.1832 37.6494 23.8811C37.6494 23.0999 37.2588 22.5061 36.4775 22.0999C35.9567 21.829 35.3681 21.6936 34.7119 21.6936C33.4723 21.6936 32.5504 22.1676 31.9463 23.1155C31.5608 23.7196 31.3681 24.4228 31.3681 25.2249C31.3681 26.6103 31.8733 27.6051 32.8838 28.2092C33.4358 28.5426 34.0608 28.7092 34.7588 28.7092C35.9358 28.7092 36.7848 28.2874 37.3056 27.4436C37.389 27.2978 37.4619 27.1519 37.5244 27.0061Z" fill="#314862"/>
<circle cx="18" cy="20.553" r="2" fill="#2289FF"/>
<path fill-rule="evenodd" clip-rule="evenodd" d="M3.01268 13.092C5.25874 20.5407 8.90164 31.438 12.4074 37.5522C16.6667 44.6576 20.7407 44.6576 25 42.0738C27.037 40.7819 29.1204 38.8441 31.2037 36.9062C33.287 34.9684 35.3704 33.0306 37.4074 31.7387C41.6667 29.1549 45.7407 29.1549 47.963 29.1549H49.6563C47.6774 40.9845 37.3915 49.9999 25 49.9999C11.1929 49.9999 0 38.807 0 24.9999C0 20.6887 1.09128 16.6323 3.01268 13.092Z" fill="#2289FF"/>
</svg>
