<svg width="121" height="66" viewBox="0 0 121 66" fill="none" xmlns="http://www.w3.org/2000/svg">
<path fill-rule="evenodd" clip-rule="evenodd" d="M1.4077 26.6157C2.1305 21.6882 6.16475 18.5148 12.4873 17.9008C17.6646 17.3981 22.9229 18.2528 25.7504 20.0567C26.9351 20.8127 28.2778 22.2886 28.7521 23.3563C28.9372 23.773 29.0883 24.1102 29.212 24.4589C29.7664 26.0217 29.7714 27.8168 29.827 38.0431L29.8897 49.5435H23.9195H17.9494L17.8317 48.4726C17.7017 47.2907 17.6531 46.7909 17.4861 46.7383C17.3602 46.6985 17.1668 46.9134 16.8203 47.282C15.7808 48.3877 14.3263 49.2639 12.7395 49.7407C10.8678 50.303 7.56934 50.3564 6.04448 49.8491C2.29023 48.6004 0.32239 45.8326 0.0335094 41.3949C-0.187037 38.0074 0.686437 35.142 2.49557 33.3184C4.76322 31.0328 8.26857 29.9837 14.6215 29.6893L17.3976 29.5608V28.0923C17.3976 25.6303 16.8408 24.7544 15.1933 24.6246C13.8439 24.5181 13.0242 24.9429 12.5963 25.9699C12.4224 26.3874 12.2784 26.8755 12.2763 27.0549C12.2729 27.3585 11.8959 27.3808 6.78402 27.3808H1.29546L1.4077 26.6157ZM81.0333 20.0984C82.6887 18.4865 83.1445 18.1628 84.1455 17.8883C85.1377 17.6162 87.0656 17.8276 87.9521 18.3059L88.7208 18.7206L88.7659 24.4475C88.7933 27.9131 88.7482 30.1744 88.6513 30.1744C88.5635 30.1744 87.8128 29.9945 86.9833 29.7748C86.1086 29.5431 84.8649 29.3669 84.0229 29.3557C82.729 29.3384 82.4838 29.392 81.772 29.8483C81.1541 30.2443 80.8657 30.5996 80.4986 31.418C80.0559 32.4041 80.0151 32.6973 79.8945 35.7483C79.8234 37.5483 79.7671 41.3675 79.7689 44.2356L79.7727 49.4504L73.0145 49.499L66.2561 49.5478V33.9944V18.4412H72.7478H79.2395V20.0243C79.2395 20.895 79.2971 21.6047 79.3677 21.6016C79.4382 21.5984 80.1877 20.922 81.0333 20.0984ZM89.2089 29.8951C90.663 23.047 95.7698 18.5895 102.961 17.8917C107.41 17.4598 110.814 18.0146 113.909 19.676C115.251 20.3962 115.769 20.8121 116.984 22.1456C118.6 23.9182 119.34 25.1491 119.965 27.1037C120.676 29.3287 120.923 31.0773 120.923 33.8914V36.5066H111.332H101.741L101.837 37.95C102.003 40.4425 102.66 41.7609 104.096 42.4857C105.386 43.137 107.154 42.8342 108.04 41.8106C108.347 41.4547 108.677 40.7788 108.824 40.202L109.078 39.2071L114.744 39.1581L120.411 39.109L120.408 39.81C120.404 40.8298 119.963 42.7125 119.489 43.727C118.017 46.8806 114.912 48.9801 110.496 49.8068C105.909 50.6656 100.749 50.2028 97.3548 48.6281C93.2028 46.702 90.5214 43.3452 89.3086 38.5553C88.7738 36.4431 88.7247 32.1758 89.2089 29.8951ZM34.2072 24.3252C36.3332 21.0769 40.1127 18.7845 44.4893 18.0887C46.1582 17.8233 50.8187 17.8604 52.5894 18.1529C58.7277 19.1676 62.3413 22.5462 63.1569 28.0327C63.2483 28.6473 63.3689 29.5064 63.4249 29.9416L63.5269 30.7332H57.3272H51.1276L50.9289 29.1445C50.8085 28.1822 50.5748 27.249 50.3358 26.7772C49.2527 24.6382 46.8801 24.5822 45.9513 26.6738C45.3995 27.9164 45.2483 29.0263 45.1315 32.6887C44.8887 40.3022 45.917 43.3016 48.5832 42.7563C49.9449 42.4777 50.7799 40.8909 50.9866 38.1888L51.1011 36.6929H57.4141H63.7271L63.6101 37.8569C63.3407 40.5367 62.6179 43.0461 61.6335 44.7184C60.8506 46.0483 59.2523 47.569 57.8432 48.3242C54.5274 50.1017 48.5987 50.7315 43.7904 49.8175C39.0706 48.9201 35.0899 45.9353 33.2365 41.9041C31.9508 39.1075 31.6858 37.7518 31.6906 33.9924C31.6938 31.3289 31.7536 30.5898 32.0666 29.3363C32.535 27.4611 33.25 25.7873 34.2072 24.3252ZM108.758 28.6122C108.652 26.8126 108.293 26.1358 107.095 25.4718C105.889 24.8042 104.892 24.7958 103.7 25.4433C103.059 25.7916 102.689 26.152 102.377 26.7318C101.949 27.5274 101.579 29.2866 101.742 29.7494C101.807 29.9329 102.638 29.9882 105.332 29.9882H108.839L108.758 28.6122ZM17.1454 40.3449C17.505 39.0242 17.4928 35.8414 17.1273 35.6885C16.5769 35.4581 13.8748 35.8045 13.1925 36.1928C10.9607 37.4632 10.8434 41.2185 13.0022 42.2868C14.816 43.1845 16.5996 42.3484 17.1454 40.3449ZM43.7537 60.8878C43.9455 58.5587 45.2196 57.1548 47.4287 56.838C50.3224 56.4232 52.3873 57.5397 52.7078 59.6927L52.8071 60.3591L51.0546 60.3056L49.3022 60.2524L49.1094 59.6005C48.9606 59.0978 48.8116 58.9354 48.4581 58.8909C47.777 58.8051 47.5662 59.3906 47.5662 61.3698C47.5662 63.346 47.7774 63.9345 48.4551 63.8487C48.8919 63.7932 48.9857 63.6326 49.2761 62.4407C49.3167 62.274 49.8197 62.2079 51.0466 62.2079H52.7602V62.7271C52.7602 63.663 52.0615 64.8659 51.2227 65.374C50.5333 65.7915 50.2604 65.8396 48.5748 65.8396C46.8084 65.8396 46.6394 65.8061 45.7608 65.2809C44.2628 64.3854 43.5875 62.9072 43.7537 60.8878ZM69.1641 61.4104C69.1564 58.8282 70.4199 57.2341 72.7849 56.8423C74.0294 56.6361 75.0686 56.77 76.0974 57.2695C77.4758 57.9387 78.2113 59.3154 78.2135 61.2301L78.2145 62.0216H75.4812C72.8924 62.0216 72.7478 62.0406 72.7478 62.382C72.7478 63.0205 73.0603 63.6626 73.4337 63.7919C74.0226 63.9956 74.6108 63.7401 74.7283 63.2294C74.8324 62.7776 74.873 62.7666 76.4392 62.7666C77.9468 62.7666 78.0437 62.7899 78.0437 63.1514C78.0437 64.1312 77.066 65.2889 75.9269 65.6578C74.8262 66.0141 72.8444 66.0094 71.8718 65.6481C70.0902 64.9864 69.1704 63.5468 69.1641 61.4104ZM53.4436 59.1625C53.4436 58.6412 54.2426 57.6295 54.9825 57.214C55.6759 56.8248 55.9311 56.7896 57.629 56.8499C59.1718 56.9047 59.6404 56.9922 60.2472 57.3384C61.3641 57.9757 61.4728 58.4233 61.4728 62.3882V65.7465H59.8338C58.3421 65.7465 58.187 65.7133 58.1062 65.3764C58.0189 65.0127 58.0081 65.0134 57.4853 65.4192C57.1003 65.7182 56.6455 65.8506 55.839 65.8986C54.888 65.9552 54.6372 65.9001 54.1269 65.5228C53.3669 64.9609 53.0676 64.2778 53.0758 63.1234C53.0891 61.2692 54.0895 60.4231 56.5099 60.2196C58.0146 60.0931 58.1765 59.9702 57.8965 59.1669C57.6827 58.554 56.9701 58.4825 56.6498 59.0418C56.4627 59.3683 56.2514 59.4143 54.9399 59.4143C53.7965 59.4143 53.4436 59.3549 53.4436 59.1625ZM66.427 57.3822C66.427 57.7565 66.4468 57.753 66.9526 57.2891C67.3447 56.9294 67.6701 56.8069 68.2339 56.8069H68.9895V58.5006V60.1942L68.178 60.0737C66.7908 59.8678 66.6984 60.0434 66.5978 63.0769L66.5124 65.6533L64.5905 65.706L62.6686 65.7588V61.3759V56.9931H64.5478C66.3397 56.9931 66.427 57.0112 66.427 57.3822ZM74.7978 59.8C74.7978 59.6026 74.6771 59.3092 74.5295 59.1481C74.1309 58.7138 73.3295 58.7779 73.0138 59.2696C72.5381 60.0101 72.6653 60.1592 73.7728 60.1592C74.6712 60.1592 74.7978 60.1149 74.7978 59.8ZM57.8853 63.2594C57.8853 63.1164 57.9333 62.7376 57.992 62.4174C58.0956 61.8529 58.0805 61.8354 57.4917 61.8354C56.7561 61.8354 56.3478 62.2366 56.3478 62.9596C56.3478 63.6516 56.8879 64.015 57.4797 63.7209C57.7028 63.6103 57.8853 63.4024 57.8853 63.2594Z" fill="#314862"/>
<path d="M32.6872 0.941859C28.6636 1.84103 26.0228 5.59043 26.3302 9.96728C26.6221 14.1266 29.597 17.4393 33.387 17.825C38.4045 18.3358 42.6573 13.3792 41.8238 7.99182C41.0919 3.26186 36.873 0.00637025 32.6872 0.941859Z" fill="#2289FF"/>
</svg>
