<svg width="71" height="36" viewBox="0 0 71 36" fill="none" xmlns="http://www.w3.org/2000/svg">
<path fill-rule="evenodd" clip-rule="evenodd" d="M19.2735 0.870873C16.9556 1.34529 15.4343 3.32354 15.6113 5.63284C15.7795 7.82737 17.4933 9.57519 19.6765 9.7787C22.567 10.0482 25.0169 7.43304 24.5367 4.59056C24.1151 2.09495 21.6847 0.377293 19.2735 0.870873ZM7.63691 9.81869C3.99468 10.1427 1.67067 11.817 1.25429 14.4169L1.18963 14.8205H4.35142C7.29621 14.8205 7.5134 14.8087 7.51537 14.6486C7.51655 14.5539 7.59951 14.2964 7.69969 14.0761C7.94622 13.5342 8.4184 13.3101 9.19575 13.3663C10.1448 13.4348 10.4656 13.8969 10.4656 15.1959V15.9707L8.86637 16.0385C5.20662 16.1939 3.1873 16.7474 1.88098 17.9533C0.838794 18.9155 0.335613 20.4273 0.462663 22.2146C0.629078 24.556 1.76269 26.0163 3.92539 26.6752C4.80382 26.9429 6.70396 26.9147 7.78216 26.618C8.69631 26.3664 9.53419 25.9041 10.133 25.3207C10.5971 24.8686 10.5843 24.8547 10.7156 25.9489L10.7834 26.5139H14.2226H17.6619L17.6257 20.4461C17.5866 13.8465 17.591 13.9022 17.0065 12.6971C16.7333 12.1338 15.9598 11.355 15.2773 10.9562C13.6485 10.0044 10.6194 9.55348 7.63691 9.81869ZM48.917 9.81211C48.3403 9.95695 48.0777 10.1277 47.1241 10.9782C46.6369 11.4127 46.2052 11.7696 46.1646 11.7713C46.1239 11.773 46.0908 11.3985 46.0908 10.9391V10.1039H42.3511H38.6114V18.31V26.5162L42.5047 26.4904L46.3979 26.4648L46.3957 23.7134C46.3947 22.2001 46.4271 20.185 46.4681 19.2353C46.5375 17.6256 46.5611 17.4709 46.8161 16.9506C47.0275 16.5188 47.1937 16.3313 47.5496 16.1224C47.9597 15.8817 48.1009 15.8534 48.8463 15.8625C49.3314 15.8684 50.0478 15.9614 50.5517 16.0836C51.0296 16.1996 51.462 16.2945 51.5126 16.2945C51.5684 16.2945 51.5944 15.1014 51.5786 13.2729L51.5526 10.2512L51.1098 10.0324C50.5991 9.78007 49.4885 9.66854 48.917 9.81211ZM59.7557 9.81388C55.6133 10.1821 52.6715 12.5339 51.8338 16.1471C51.5549 17.3504 51.5831 19.6019 51.8913 20.7164C52.5899 23.2436 54.1346 25.0147 56.5264 26.031C58.4817 26.8618 61.4543 27.106 64.0967 26.6529C66.6404 26.2167 68.4293 25.109 69.2773 23.4451C69.5501 22.9098 69.8045 21.9165 69.8066 21.3784L69.8081 21.0085L66.5439 21.0344L63.2798 21.0603L63.1337 21.5852C63.0488 21.8895 62.8589 22.2461 62.6816 22.4339C62.1714 22.974 61.1529 23.1338 60.4097 22.7901C59.5824 22.4077 59.2042 21.7121 59.1084 20.397L59.053 19.6355H64.5782H70.1033V18.2556C70.1033 16.7709 69.9611 15.8483 69.5513 14.6743C69.1913 13.643 68.7651 12.9936 67.8344 12.0583C67.1342 11.3548 66.8359 11.1353 66.063 10.7553C64.2798 9.87873 62.3187 9.586 59.7557 9.81388ZM26.0723 9.91784C23.551 10.285 21.3738 11.4945 20.149 13.2083C19.5976 13.9798 19.1858 14.8629 18.9159 15.8523C18.7356 16.5136 18.7012 16.9036 18.6993 18.3089C18.6966 20.2924 18.8492 21.0077 19.5898 22.4832C20.6575 24.6102 22.9507 26.185 25.6696 26.6585C28.4396 27.1408 31.8549 26.8084 33.765 25.8706C34.5767 25.4721 35.4975 24.6698 35.9485 23.9681C36.5156 23.0858 36.9319 21.7618 37.0871 20.3479L37.1545 19.7337H33.5178H29.8811L29.8152 20.523C29.6961 21.9487 29.215 22.7859 28.4306 22.9329C26.8947 23.2206 26.3023 21.6381 26.4422 17.621C26.5095 15.6887 26.5966 15.1031 26.9145 14.4475C27.4495 13.3439 28.8163 13.3735 29.4402 14.502C29.5779 14.751 29.7125 15.2434 29.7819 15.7511L29.8964 16.5893H33.4677H37.0392L36.9804 16.1717C36.9482 15.942 36.8787 15.4887 36.826 15.1644C36.3562 12.2697 34.2745 10.4871 30.7385 9.95174C29.7184 9.79737 27.0336 9.77781 26.0723 9.91784ZM62.1372 13.8133C62.8278 14.1636 63.0343 14.5207 63.0953 15.4702L63.1419 16.1962H61.122C59.5699 16.1962 59.091 16.167 59.0538 16.0702C58.9599 15.8261 59.1732 14.8979 59.4195 14.4781C59.599 14.1722 59.8123 13.982 60.1816 13.7983C60.8682 13.4566 61.4429 13.461 62.1372 13.8133ZM10.3099 19.2038C10.5204 19.2845 10.5275 20.9638 10.3203 21.6606C10.0059 22.7177 8.97836 23.1588 7.93352 22.6852C6.68989 22.1215 6.7575 20.1401 8.04315 19.4699C8.43621 19.265 9.99279 19.0822 10.3099 19.2038ZM27.7655 30.3626C26.493 30.5298 25.759 31.2705 25.6485 32.4994C25.5527 33.5649 25.9418 34.3448 26.8047 34.8172C27.3109 35.0943 27.4082 35.112 28.4258 35.112C29.3968 35.112 29.554 35.0867 29.9512 34.8664C30.4344 34.5983 30.8369 33.9636 30.8369 33.4698V33.1959H29.8497C29.1429 33.1959 28.8532 33.2308 28.8298 33.3187C28.6625 33.9476 28.6084 34.0323 28.3568 34.0616C27.9664 34.1069 27.8448 33.7964 27.8448 32.7537C27.8448 31.7094 27.9662 31.4005 28.3586 31.4458C28.5622 31.4693 28.648 31.555 28.7337 31.8202L28.8448 32.1641L29.8543 32.1922L30.8638 32.2204L30.8067 31.8688C30.622 30.7329 29.4325 30.1438 27.7655 30.3626ZM42.3725 30.3649C41.01 30.5716 40.2822 31.4127 40.2866 32.7751C40.2902 33.9023 40.8201 34.6619 41.8464 35.011C42.4067 35.2016 43.5484 35.2041 44.1824 35.0161C44.8387 34.8215 45.4019 34.2107 45.4019 33.6937C45.4019 33.503 45.3461 33.4907 44.4776 33.4907C43.5753 33.4907 43.5519 33.4965 43.492 33.7349C43.4243 34.0043 43.0854 34.1391 42.7462 34.0316C42.5311 33.9634 42.3511 33.6246 42.3511 33.2878C42.3511 33.1076 42.4344 33.0976 43.9257 33.0976H45.5003L45.4997 32.68C45.4984 31.6697 45.0747 30.9434 44.2807 30.5903C43.688 30.3268 43.0894 30.2561 42.3725 30.3649ZM32.117 30.561C31.6908 30.7803 31.2305 31.314 31.2305 31.5891C31.2305 31.6906 31.4338 31.7219 32.0925 31.7219C32.848 31.7219 32.9698 31.6977 33.0775 31.5254C33.262 31.2303 33.6725 31.268 33.7957 31.5914C33.957 32.0152 33.8637 32.0801 32.9969 32.1468C31.6026 32.2542 31.0263 32.7006 31.0186 33.6789C31.0139 34.288 31.1863 34.6484 31.6242 34.9449C31.9181 35.144 32.0626 35.173 32.6105 35.1432C33.0751 35.1178 33.337 35.048 33.5589 34.8902C33.86 34.6761 33.8662 34.6757 33.9165 34.8676C33.963 35.0454 34.0524 35.0629 34.9117 35.0629H35.8559V33.291C35.8559 31.1991 35.7933 30.9629 35.1499 30.6267C34.8003 30.444 34.5304 30.3978 33.6416 30.3689C32.6635 30.3371 32.5165 30.3557 32.117 30.561ZM39.0127 30.6006C38.7213 30.8454 38.7098 30.8473 38.7098 30.6498C38.7098 30.454 38.6596 30.4445 37.6273 30.4445H36.5448V32.7569V35.0694L37.6519 35.0416L38.7591 35.0138L38.8083 33.6544C38.8662 32.0539 38.9195 31.9612 39.7186 32.0699L40.186 32.1335V31.2398V30.3462H39.7508C39.426 30.3462 39.2385 30.4109 39.0127 30.6006ZM43.3774 31.5815C43.4625 31.6665 43.532 31.8213 43.532 31.9254C43.532 32.0916 43.4591 32.115 42.9416 32.115C42.3036 32.115 42.2302 32.0363 42.5043 31.6456C42.6862 31.3862 43.1478 31.3524 43.3774 31.5815ZM33.8507 33.3064C33.8169 33.4753 33.7892 33.6752 33.7892 33.7507C33.7892 33.8261 33.6841 33.9358 33.5556 33.9942C33.2147 34.1493 32.9035 33.9576 32.9035 33.5925C32.9035 33.211 33.1387 32.9994 33.5625 32.9994C33.9017 32.9994 33.9104 33.0086 33.8507 33.3064Z" fill="white"/>
</svg>
