<svg width="70" height="34" viewBox="0 0 70 34" fill="none" xmlns="http://www.w3.org/2000/svg">
<path fill-rule="evenodd" clip-rule="evenodd" d="M16.3844 0.801323C14.1786 1.65659 13.0103 3.85933 13.572 6.1037C14.1058 8.23653 16.0885 9.6707 18.2753 9.50553C21.1704 9.28698 23.1475 6.30155 22.1975 3.5829C21.3634 1.19602 18.6792 -0.0884539 16.3844 0.801323ZM6.41118 11.5608C2.87434 12.4897 0.86363 14.5275 0.888957 17.1574L0.892883 17.5657L4.01033 17.0363C6.91382 16.5432 7.12599 16.4953 7.10108 16.3372C7.08638 16.2438 7.125 15.9763 7.18684 15.7426C7.33907 15.1678 7.76705 14.868 8.54293 14.7932C9.49019 14.7017 9.8839 15.1031 10.1017 16.3822L10.2316 17.1452L8.66616 17.4797C5.08378 18.2455 3.18558 19.1286 2.09974 20.5348C1.23349 21.6568 0.990813 23.2298 1.41573 24.9685C1.97235 27.2463 3.33488 28.4945 5.57772 28.7811C6.4887 28.8976 8.35747 28.5517 9.37082 28.0791C10.23 27.6783 10.9786 27.0827 11.4712 26.408C11.853 25.8851 11.838 25.8736 12.151 26.929L12.3126 27.4741L15.7035 26.8982L19.0945 26.3224L18.0416 20.3533C16.8966 13.8611 16.9103 13.9153 16.132 12.8264C15.7682 12.3174 14.875 11.6801 14.1352 11.4016C12.3696 10.7371 9.30737 10.8003 6.41118 11.5608ZM47.1112 4.64251C46.5669 4.8817 46.3367 5.09384 45.539 6.09098C45.1316 6.60043 44.7657 7.02416 44.7259 7.03261C44.6861 7.04106 44.5906 6.67785 44.5136 6.22549L44.3736 5.40301L40.6864 6.02917L36.9992 6.65532L38.3749 14.736L39.7507 22.8169L43.5851 22.1396L47.4193 21.4625L46.9559 18.7535C46.7012 17.2636 46.3954 15.2738 46.2765 14.3318C46.0751 12.735 46.0724 12.5787 46.2366 12.0237C46.3727 11.5631 46.5051 11.3507 46.821 11.0853C47.185 10.7796 47.3195 10.7281 48.0559 10.6123C48.5352 10.5369 49.2572 10.5085 49.7745 10.5445C50.2651 10.5786 50.7074 10.5997 50.7572 10.5912C50.8123 10.5819 50.6378 9.40265 50.3158 7.60473L49.7836 4.63364L49.3102 4.4923C48.7644 4.32931 47.6507 4.40544 47.1112 4.64251ZM57.7983 2.82946C53.7757 3.88561 51.2694 6.69409 51.0492 10.3923C50.976 11.624 51.3813 13.8363 51.8719 14.8821C52.9845 17.2538 54.8044 18.7392 57.3331 19.3394C59.4003 19.8302 62.3721 19.5729 64.9015 18.6843C67.3364 17.8289 68.9145 16.4385 69.4717 14.6581C69.6509 14.0853 69.7352 13.0645 69.647 12.5343L69.5865 12.1699L66.3725 12.742L63.1585 13.3139L63.1024 13.8553C63.0697 14.1692 62.9423 14.5521 62.7989 14.7667C62.3864 15.384 61.409 15.7118 60.6186 15.4979C59.7388 15.2598 59.2492 14.6382 58.9344 13.3592L58.752 12.6186L64.1997 11.6935L69.6474 10.7684L69.4161 9.40964C69.1671 7.94756 68.8723 7.06287 68.2714 5.97546C67.7436 5.02022 67.2144 4.45208 66.14 3.68692C65.3317 3.11135 65.0008 2.94522 64.175 2.70046C62.2698 2.13582 60.2872 2.17592 57.7983 2.82946ZM24.6046 8.57167C22.1803 9.35532 20.2364 10.9109 19.3161 12.8036C18.9018 13.6556 18.6438 14.5942 18.5436 15.6137C18.4767 16.2951 18.5081 16.6849 18.7418 18.069C19.0717 20.0227 19.3421 20.7015 20.3197 22.0305C21.729 23.9461 24.2541 25.113 27.0142 25.1239C29.8262 25.135 33.1379 24.2359 34.864 22.9926C35.5975 22.4643 36.3709 21.5201 36.6979 20.7536C37.1091 19.7898 37.2977 18.4163 37.2136 16.998L37.1771 16.382L33.5914 16.9909L30.0057 17.5998L30.073 18.3881C30.1946 19.8119 29.8607 20.7169 29.1119 20.993C27.6457 21.5335 26.7964 20.0743 26.2608 16.0952C26.0032 14.1811 25.9909 13.5899 26.1944 12.8911C26.537 11.7148 27.8895 11.5151 28.6939 12.5219C28.8714 12.744 29.0867 13.2063 29.2402 13.6946L29.4936 14.5009L33.0149 13.9029L36.5363 13.3049L36.4083 12.9035C36.338 12.6828 36.1935 12.248 36.0872 11.9375C35.1387 9.16567 32.7873 7.75886 29.2111 7.82376C28.1795 7.84254 25.5291 8.27281 24.6046 8.57167ZM60.817 6.36902C61.5566 6.59835 61.82 6.91541 62.0393 7.84021L62.207 8.54728L60.2155 8.88549C58.6851 9.14538 58.208 9.19682 58.1551 9.10774C58.0216 8.883 58.0763 7.93328 58.2488 7.47867C58.3745 7.14739 58.5529 6.92445 58.8862 6.68166C59.5059 6.23025 60.0732 6.13839 60.817 6.36902ZM10.6201 20.3549C10.8412 20.3991 11.1297 22.0516 11.0423 22.7724C10.9095 23.866 9.97031 24.4725 8.86071 24.181C7.54002 23.8342 7.2745 21.8718 8.42976 20.9965C8.78296 20.7289 10.2871 20.2883 10.6201 20.3549ZM29.7017 28.4205C28.475 28.7982 27.8756 29.6505 27.9726 30.8791C28.0568 31.9443 28.5712 32.6472 29.5012 32.9679C30.0467 33.1561 30.1457 33.1572 31.149 32.9868C32.1064 32.8242 32.2571 32.7729 32.6118 32.4895C33.0433 32.1446 33.3337 31.4522 33.2509 30.966L33.205 30.6962L32.2317 30.8615C31.5348 30.9799 31.255 31.0627 31.2466 31.1532C31.1871 31.8005 31.148 31.893 30.9048 31.964C30.5275 32.0739 30.3555 31.7885 30.1807 30.7618C30.0057 29.7335 30.0736 29.4089 30.4681 29.3879C30.6727 29.3769 30.7717 29.4469 30.9007 29.6937L31.0679 30.0138L32.068 29.8724L33.0681 29.7312L32.9527 29.3945C32.5803 28.3068 31.3087 27.9259 29.7017 28.4205ZM44.1042 25.977C42.7956 26.4087 42.2189 27.3588 42.4517 28.6997C42.6442 29.809 43.294 30.4683 44.3645 30.6402C44.9489 30.7341 46.0749 30.5454 46.6686 30.2541C47.283 29.9526 47.7359 29.2568 47.6492 28.7477C47.6172 28.5599 47.5602 28.5571 46.7039 28.7026C45.8143 28.8536 45.7921 28.8633 45.773 29.108C45.7514 29.3847 45.44 29.5742 45.0875 29.5251C44.8639 29.494 44.6296 29.1905 44.5732 28.8588C44.543 28.6814 44.6234 28.6576 46.0938 28.4079L47.6463 28.1443L47.5757 27.7331C47.4051 26.7385 46.8656 26.0942 46.0234 25.8795C45.3949 25.7192 44.7928 25.7499 44.1042 25.977ZM34.0255 27.8873C33.642 28.1745 33.2776 28.7772 33.3238 29.0481C33.3408 29.148 33.5465 29.1448 34.1959 29.0346C34.9409 28.9081 35.0568 28.8638 35.1342 28.6761C35.2666 28.3546 35.6777 28.3231 35.8534 28.6209C36.0835 29.0112 36.0024 29.0907 35.1589 29.3015C33.8022 29.6407 33.3088 30.1768 33.4652 31.1415C33.5627 31.742 33.7931 32.0681 34.2745 32.2867C34.5977 32.4335 34.745 32.4379 35.2802 32.3168C35.734 32.214 35.9806 32.1014 36.1729 31.9089C36.4339 31.6477 36.44 31.6462 36.5217 31.8268C36.5974 31.9941 36.6884 31.9963 37.5357 31.8524L38.4667 31.6943L38.1696 29.9495C37.8189 27.8896 37.7176 27.6675 37.0268 27.4441C36.6515 27.3228 36.3776 27.3225 35.4965 27.4429C34.5267 27.5753 34.3849 27.6182 34.0255 27.8873ZM40.8311 26.7717C40.5848 27.0615 40.5738 27.0653 40.5407 26.8708C40.5079 26.678 40.4567 26.6771 39.439 26.8499L38.3716 27.0312L38.7593 29.3083L39.147 31.5854L40.2339 31.3726L41.3209 31.1599L41.1415 29.813C40.9303 28.2272 40.9673 28.1271 41.7734 28.1003L42.2449 28.0846L42.0951 27.2047L41.9453 26.3247L41.5161 26.3976C41.1959 26.452 41.0219 26.547 40.8311 26.7717ZM45.2991 27.0068C45.3971 27.0762 45.4917 27.217 45.5092 27.3196C45.537 27.4832 45.469 27.5184 44.9587 27.6051C44.3297 27.7119 44.2442 27.6467 44.4489 27.216C44.5848 26.9301 45.0343 26.8196 45.2991 27.0068ZM36.1952 30.3005C36.1901 30.4725 36.1963 30.6739 36.209 30.7482C36.2216 30.8225 36.1364 30.9481 36.0195 31.0271C35.7094 31.237 35.3704 31.1003 35.3092 30.7407C35.2452 30.3651 35.4416 30.1173 35.8595 30.0463C36.1939 29.9895 36.204 29.9972 36.1952 30.3005Z" fill="white"/>
</svg>
