<svg width="103" height="102" viewBox="0 0 103 102" fill="none" xmlns="http://www.w3.org/2000/svg">
<path d="M85.2408 52.474C85.3785 51.866 85.6015 51.3181 85.9096 50.8301C86.2152 50.3532 86.5997 49.9639 87.0632 49.6622C87.5266 49.3605 88.0653 49.1629 88.6791 49.0696C89.2929 48.9763 89.9756 49.0147 90.7272 49.185L91.0588 49.2602C91.7662 49.4205 92.3644 49.678 92.8534 50.0328C93.3424 50.3877 93.7255 50.7999 94.0026 51.2694C94.2772 51.7499 94.4496 52.2712 94.5198 52.8333C94.59 53.3954 94.5587 53.9693 94.426 54.5551C94.2857 55.1741 94.0788 55.7025 93.8053 56.1402C93.5294 56.589 93.2101 56.9466 92.8476 57.2131C92.4851 57.4795 92.0891 57.6629 91.6597 57.7632C91.2302 57.8634 90.7907 57.88 90.341 57.813L90.8444 55.5913C91.2734 55.5956 91.6353 55.4858 91.93 55.2621C92.2333 55.0519 92.4463 54.676 92.569 54.1344C92.6341 53.847 92.6458 53.5649 92.6039 53.2882C92.5595 53.0225 92.4548 52.7664 92.2899 52.5198C92.1335 52.2868 91.9131 52.08 91.6287 51.8994C91.3442 51.7187 90.9865 51.5795 90.5554 51.4819L90.2238 51.4067C89.7596 51.3015 89.3449 51.2599 88.9797 51.2817C88.623 51.3171 88.3129 51.4037 88.0493 51.5415C87.7967 51.6818 87.5918 51.8678 87.4348 52.0995C87.2777 52.3312 87.1653 52.5963 87.0977 52.8947C87 53.3258 87.0267 53.7211 87.1776 54.0807C87.3371 54.4538 87.6199 54.7445 88.0259 54.9527L87.5225 57.1744C87.0487 57.0089 86.6379 56.7706 86.29 56.4593C85.9508 56.1617 85.683 55.8047 85.4868 55.3884C85.2881 54.9831 85.164 54.5308 85.1145 54.0316C85.076 53.5348 85.1181 53.0156 85.2408 52.474Z" fill="black"/>
<path d="M83.2768 61.8324C83.4976 61.3602 83.7283 60.9739 83.9689 60.6735C84.2197 60.3779 84.5057 60.1676 84.8269 60.0425C85.1433 59.9278 85.5052 59.9031 85.9125 59.9684C86.3301 60.0386 86.811 60.2009 87.3551 60.4553L95.409 64.2215L94.4585 66.2542L86.6509 62.6033C86.1273 62.3584 85.7371 62.2698 85.4803 62.3374C85.2235 62.405 84.9919 62.6595 84.7855 63.1009C84.7327 63.2139 84.6871 63.3114 84.6487 63.3935C84.6205 63.4805 84.5924 63.5674 84.5642 63.6543L82.8549 62.855C82.8728 62.7633 82.9321 62.6096 83.0329 62.394C83.1235 62.1736 83.2048 61.9864 83.2768 61.8324Z" fill="black"/>
<path d="M80.6239 68.1937C81.019 67.7263 81.465 67.3391 81.962 67.0321C82.4603 66.741 82.984 66.5604 83.533 66.4903C84.0907 66.4275 84.6671 66.4918 85.2621 66.6832C85.8659 66.8819 86.4663 67.2337 87.0635 67.7385L87.3232 67.958C87.8944 68.4409 88.3189 68.9482 88.5967 69.4798C88.8744 70.0114 89.0238 70.5457 89.0447 71.0828C89.0742 71.6272 88.9899 72.157 88.7918 72.6722C88.6024 73.1947 88.3138 73.6853 87.926 74.144C87.0114 75.2259 86.0307 75.8067 84.9839 75.8864C83.9371 75.9661 82.8727 75.5486 81.7908 74.634L81.0638 74.0195L85.1794 69.1509C84.8692 68.9035 84.5613 68.7323 84.2558 68.6373C83.9589 68.5496 83.6754 68.5251 83.4052 68.5638C83.135 68.6025 82.8812 68.6921 82.6437 68.8327C82.4075 68.9892 82.2016 69.1713 82.026 69.379C81.6528 69.8204 81.4361 70.2085 81.3757 70.5433C81.3153 70.8781 81.3703 71.1992 81.5408 71.5066L80.2129 73.0775C79.6115 72.3317 79.3596 71.5325 79.457 70.68C79.5545 69.8274 79.9434 68.9987 80.6239 68.1937ZM86.469 73.0237C86.6373 72.8246 86.7796 72.6036 86.896 72.3606C87.005 72.1263 87.0655 71.888 87.0773 71.6457C87.0892 71.4035 87.0402 71.1543 86.9302 70.8981C86.8203 70.6419 86.6348 70.3961 86.3738 70.1606L83.663 73.3674C83.956 73.6002 84.2342 73.7538 84.4978 73.8282C84.7541 73.9112 85.0006 73.9268 85.2375 73.8748C85.4671 73.8314 85.684 73.7328 85.8883 73.579C86.0925 73.4251 86.2861 73.24 86.469 73.0237Z" fill="black"/>
<path d="M75.8333 74.9934C76.2386 74.7228 76.6345 74.5402 77.0211 74.4457C77.414 74.3605 77.788 74.3493 78.1432 74.4119C78.5048 74.484 78.8365 74.6236 79.1384 74.8309C79.4466 75.0476 79.7139 75.3256 79.9405 75.6649C80.9473 77.173 80.5553 78.5249 78.7644 79.7205L76.5305 81.2119L76.7665 81.5654C77.0937 82.0555 77.4365 82.3241 77.7948 82.371C78.1438 82.4242 78.5586 82.2903 79.0393 81.9694C79.4635 81.6862 79.7195 81.4063 79.8073 81.1296C79.9014 80.8624 79.8903 80.6109 79.7738 80.3753L81.6401 79.1293C81.8352 79.4624 81.9565 79.8175 82.0039 80.1946C82.0418 80.5781 81.9949 80.9569 81.8632 81.331C81.7283 81.7209 81.5053 82.1014 81.1944 82.4725C80.8897 82.853 80.4876 83.2101 79.9881 83.5436C79.5074 83.8645 79.0392 84.1021 78.5835 84.2565C78.1184 84.4171 77.6705 84.4708 77.2398 84.4176C76.806 84.3802 76.391 84.228 75.9948 83.9611C75.5986 83.6942 75.2274 83.3015 74.8813 82.7831L72.9651 79.913C72.7008 79.5171 72.4633 79.1715 72.2525 78.8761C72.0386 78.5965 71.8184 78.3279 71.5919 78.0703L73.3309 76.9093C73.5071 77.0915 73.6345 77.2313 73.7131 77.3287C73.7886 77.4418 73.8987 77.6067 74.0435 77.8235C74.0495 77.3835 74.189 76.9087 74.4622 76.3993C74.7259 75.8962 75.1829 75.4276 75.8333 74.9934ZM76.2164 76.8225C75.9902 76.9736 75.7876 77.1497 75.6085 77.351C75.4358 77.5617 75.3055 77.785 75.2176 78.0208C75.1361 78.266 75.1095 78.5222 75.138 78.7894C75.1664 79.0565 75.2688 79.3221 75.445 79.586L75.681 79.9395L77.5614 78.684C77.9196 78.4449 78.1457 78.1713 78.2398 77.8632C78.3308 77.5708 78.2819 77.2832 78.0931 77.0005C77.8917 76.6988 77.6276 76.5277 77.3006 76.4871C76.9737 76.4464 76.6123 76.5582 76.2164 76.8225Z" fill="black"/>
<path d="M73.5959 88.8986L71.6208 89.5314L71.2162 88.2686C71.1356 88.7229 70.9154 89.1683 70.5554 89.6049C70.1847 90.045 69.6108 90.3896 68.8337 90.6385C67.7867 90.9739 66.9197 90.9423 66.2327 90.5436C65.5348 90.1483 65.0164 89.4218 64.6776 88.3641L62.9141 82.8597L65.0511 82.1751L66.659 87.1938C66.8665 87.8414 67.157 88.2838 67.5305 88.5212C67.8933 88.762 68.3931 88.7804 69.0298 88.5764C69.3752 88.4657 69.6493 88.3184 69.8522 88.1344C70.0551 87.9504 70.2081 87.7407 70.3112 87.5054C70.407 87.2843 70.4546 87.0429 70.4541 86.7812C70.4462 86.5338 70.4008 86.2806 70.3178 86.0216L68.7099 81.0029L70.8469 80.3182L73.5959 88.8986Z" fill="black"/>
<path d="M57.9243 84.6075C58.536 84.591 59.1219 84.6659 59.682 84.8321C60.231 85.01 60.7145 85.2804 61.1324 85.6432C61.5507 86.0174 61.8866 86.4902 62.1401 87.0615C62.3939 87.6442 62.5314 88.3264 62.5525 89.1081L62.5617 89.448C62.5819 90.1957 62.4862 90.8502 62.2747 91.4115C62.0631 91.9727 61.7639 92.44 61.3772 92.8133C60.9908 93.1978 60.5394 93.4878 60.0232 93.6831C59.5073 93.8898 58.9491 94.0013 58.3486 94.0175C56.9325 94.0558 55.8461 93.711 55.0895 92.9832C54.3329 92.2553 53.9354 91.1834 53.8972 89.7672L53.8715 88.8156L60.2441 88.6433C60.2221 88.2471 60.1448 87.9034 60.0122 87.6122C59.8799 87.3324 59.7094 87.1046 59.5005 86.9288C59.2917 86.753 59.0558 86.6234 58.7928 86.5398C58.5187 86.4678 58.2458 86.4355 57.9739 86.4429C57.3961 86.4585 56.9622 86.5552 56.6722 86.7331C56.3823 86.911 56.1794 87.1659 56.0637 87.4979L54.0074 87.5534C54.1633 86.6082 54.5916 85.888 55.2925 85.3929C55.9934 84.8978 56.8706 84.636 57.9243 84.6075ZM58.2141 92.1845C58.4746 92.1774 58.7343 92.1364 58.993 92.0614C59.2404 91.9867 59.4584 91.8731 59.647 91.7206C59.8357 91.5681 59.9889 91.3656 60.1068 91.1129C60.2247 90.8603 60.2845 90.5583 60.2864 90.2068L56.0889 90.3202C56.1103 90.6938 56.1811 91.0036 56.3011 91.2498C56.4098 91.4963 56.5624 91.6906 56.759 91.8327C56.9443 91.975 57.1623 92.0712 57.413 92.1211C57.6638 92.171 57.9308 92.1921 58.2141 92.1845Z" fill="black"/>
<path d="M49.5957 94.6746L47.5662 94.2472L47.8395 92.9496C47.7245 93.1107 47.5762 93.2648 47.3947 93.4119C47.2108 93.57 47.0051 93.6946 46.7774 93.7857C46.5474 93.8878 46.3066 93.9587 46.0551 93.9984C45.7924 94.0357 45.5169 94.024 45.2286 93.9633C45.0178 93.9189 44.8427 93.8705 44.7032 93.8179C44.5526 93.7631 44.4575 93.7199 44.4178 93.6883L44.8277 91.742C44.9293 91.8097 45.0653 91.8789 45.2357 91.9496C45.3927 92.029 45.6154 92.099 45.9037 92.1597C46.2364 92.2298 46.5309 92.2339 46.7872 92.1721C47.0434 92.1102 47.269 92.0014 47.464 91.8455C47.6455 91.6985 47.7952 91.5099 47.9132 91.28C48.0311 91.05 48.1181 90.8019 48.1741 90.5358L49.2567 85.3955L51.4525 85.858L49.5957 94.6746Z" fill="black"/>
<path d="M35.7932 81.8395C36.2946 82.2099 36.7068 82.6341 37.0299 83.1123C37.3439 83.5838 37.546 84.0923 37.6361 84.6379C37.7262 85.1836 37.6907 85.7562 37.5296 86.3558C37.3686 86.9554 37.0591 87.5651 36.6012 88.185L36.3992 88.4585C35.9682 89.0419 35.4921 89.4863 34.9707 89.7916C34.4493 90.0968 33.918 90.2821 33.3767 90.3472C32.8263 90.4056 32.2797 90.3541 31.7367 90.1926C31.1938 90.0311 30.6808 89.7719 30.1976 89.415C29.6871 89.0379 29.2864 88.6363 28.9954 88.21C28.6953 87.7769 28.496 87.3409 28.3976 86.9019C28.2992 86.4629 28.2903 86.0266 28.371 85.5931C28.4517 85.1595 28.6131 84.7503 28.8551 84.3655L30.6874 85.7189C30.5112 86.1101 30.4663 86.4856 30.5528 86.8454C30.6235 87.2075 30.8822 87.5536 31.3288 87.8835C31.5659 88.0586 31.8195 88.1825 32.0898 88.2554C32.3509 88.3215 32.6275 88.3285 32.9196 88.2765C33.1957 88.2269 33.4737 88.1081 33.7534 87.9202C34.0331 87.7323 34.3042 87.4606 34.5668 87.105L34.7688 86.8316C35.0517 86.4487 35.2564 86.0856 35.3831 85.7424C35.494 85.4016 35.5392 85.0828 35.5189 84.786C35.4919 84.4983 35.4038 84.236 35.2548 83.9991C35.1057 83.7622 34.9081 83.5528 34.662 83.371C34.3064 83.1084 33.9337 82.974 33.5438 82.9678C33.138 82.964 32.7582 83.1061 32.4045 83.3943L30.5721 82.0409C30.914 81.6734 31.2973 81.393 31.722 81.1995C32.1309 81.0083 32.5654 80.9066 33.0254 80.8941C33.4764 80.875 33.9404 80.943 34.4176 81.0982C34.888 81.2625 35.3465 81.5096 35.7932 81.8395Z" fill="black"/>
<path d="M27.9648 76.2324C28.3085 76.6244 28.5696 76.9908 28.748 77.3318C28.918 77.6802 28.9957 78.0266 28.9811 78.371C28.9591 78.7069 28.8364 79.0482 28.6129 79.3949C28.3809 79.7492 28.0391 80.1243 27.5875 80.5204L20.903 86.3828L19.4234 84.6957L25.9034 79.0126C26.3379 78.6315 26.5758 78.3098 26.6171 78.0475C26.6584 77.7852 26.5183 77.4708 26.197 77.1044C26.1148 77.0107 26.0438 76.9297 25.984 76.8616C25.9157 76.8009 25.8474 76.7402 25.7791 76.6795L27.1978 75.4353C27.2746 75.4885 27.3915 75.6046 27.5484 75.7835C27.7139 75.955 27.8527 76.1046 27.9648 76.2324Z" fill="black"/>
<path d="M23.2183 71.2942C23.4878 71.8436 23.6634 72.4076 23.7451 72.986C23.8117 73.5593 23.7669 74.1114 23.6108 74.6424C23.4445 75.1784 23.1543 75.6805 22.7401 76.1487C22.3158 76.6219 21.7526 77.0307 21.0505 77.375L20.7452 77.5247C20.0737 77.8541 19.4387 78.0393 18.8403 78.0804C18.2419 78.1214 17.6925 78.0437 17.1922 77.8472C16.6818 77.6558 16.2304 77.366 15.838 76.9777C15.4354 76.5945 15.1019 76.1332 14.8374 75.5939C14.2136 74.322 14.0753 73.1907 14.4225 72.1999C14.7697 71.2091 15.5792 70.4018 16.8511 69.778L17.7059 69.3588L20.5131 75.0824C20.8642 74.8976 21.1446 74.6843 21.3543 74.4427C21.5538 74.206 21.69 73.9561 21.763 73.6931C21.836 73.4301 21.8558 73.1616 21.8224 72.8877C21.7738 72.6085 21.6897 72.3468 21.5699 72.1026C21.3154 71.5837 21.0469 71.2294 20.7645 71.0397C20.4822 70.85 20.166 70.7715 19.816 70.8043L18.9102 68.9575C19.8346 68.7061 20.6677 68.7961 21.4095 69.2275C22.1512 69.659 22.7542 70.3478 23.2183 71.2942ZM16.4484 74.7092C16.5632 74.9432 16.7085 75.1623 16.8843 75.3663C17.0552 75.5603 17.2492 75.7113 17.4663 75.8194C17.6834 75.9275 17.9313 75.9826 18.2101 75.9847C18.4888 75.9869 18.7884 75.9157 19.1089 75.7711L17.2599 72.0012C16.9291 72.176 16.6767 72.3692 16.5027 72.5808C16.3238 72.7821 16.2106 73.0018 16.1632 73.2396C16.1107 73.4673 16.114 73.7056 16.1729 73.9544C16.2318 74.2032 16.3236 74.4548 16.4484 74.7092Z" fill="black"/>
<path d="M18.913 64.234C18.997 64.714 19.0042 65.1499 18.9347 65.5418C18.854 65.9356 18.7133 66.2823 18.5126 66.5821C18.3008 66.8837 18.0391 67.1309 17.7276 67.3234C17.405 67.5179 17.0427 67.6503 16.6408 67.7206C14.8546 68.0331 13.776 67.1287 13.4049 65.0076L12.9421 62.3618L12.5235 62.435C11.943 62.5366 11.5589 62.7418 11.3713 63.0508C11.1818 63.3485 11.1369 63.7821 11.2365 64.3514C11.3243 64.8538 11.4771 65.201 11.6948 65.3931C11.9013 65.587 12.1359 65.6783 12.3985 65.6669L12.7852 67.8773C12.4017 67.9214 12.0278 67.889 11.6636 67.7801C11.2975 67.6601 10.9698 67.4643 10.6807 67.1927C10.3785 66.9119 10.1203 66.5544 9.90631 66.1201C9.68112 65.6878 9.51677 65.1758 9.41327 64.5841C9.31367 64.0147 9.28524 63.4904 9.32798 63.0113C9.36876 62.5209 9.50039 62.0894 9.72285 61.7169C9.9322 61.3351 10.2389 61.0168 10.6431 60.762C11.0472 60.5072 11.5563 60.3261 12.1703 60.2187L15.5697 59.6241C16.0386 59.5421 16.4507 59.4642 16.806 59.3906C17.1481 59.3077 17.4828 59.2147 17.8099 59.1114L18.1702 61.1711C17.9324 61.2588 17.7531 61.3189 17.6322 61.3515C17.4982 61.375 17.3029 61.4091 17.0461 61.4541C17.4463 61.6372 17.8243 61.9565 18.1801 62.412C18.534 62.8563 18.7783 63.4636 18.913 64.234ZM17.0849 63.8462C17.038 63.5782 16.9586 63.3217 16.8467 63.0767C16.7237 62.8336 16.572 62.6243 16.3917 62.4487C16.2003 62.2751 15.9766 62.1474 15.7207 62.0656C15.4647 61.9838 15.1805 61.9702 14.8679 62.0249L14.4492 62.0982L14.8388 64.3253C14.913 64.7496 15.0721 65.0669 15.316 65.2774C15.5468 65.4786 15.8297 65.5499 16.1646 65.4913C16.5218 65.4288 16.785 65.2562 16.9542 64.9735C17.1233 64.6908 17.1669 64.315 17.0849 63.8462Z" fill="black"/>
<path d="M7.0592 56.4177L7.28264 54.3558L8.60092 54.4986C8.21849 54.2406 7.90081 53.8585 7.64787 53.3523C7.39615 52.8348 7.31425 52.1704 7.40216 51.3592C7.52059 50.2663 7.90145 49.4867 8.54474 49.0207C9.18925 48.5433 10.0636 48.3645 11.1678 48.4841L16.9142 49.1068L16.6724 51.3378L11.4331 50.77C10.757 50.6968 10.2348 50.7827 9.86621 51.0277C9.49888 51.2615 9.2792 51.7108 9.20717 52.3756C9.1681 52.7361 9.19147 53.0464 9.27728 53.3065C9.36309 53.5666 9.49262 53.7916 9.66585 53.9813C9.82903 54.1586 10.0303 54.3001 10.2696 54.4058C10.4989 54.4991 10.7488 54.5604 11.0192 54.5897L16.2585 55.1574L16.0168 57.3883L7.0592 56.4177Z" fill="black"/>
<path d="M17.3005 43.8508C17.0684 44.4171 16.7632 44.9228 16.3849 45.3679C16.0003 45.7982 15.5576 46.1312 15.0568 46.3669C14.5456 46.5983 13.9774 46.7145 13.3523 46.7156C12.7167 46.7123 12.0372 46.5624 11.3136 46.2659L10.999 46.137C10.3068 45.8533 9.7468 45.5013 9.31889 45.081C8.89099 44.6607 8.58446 44.1983 8.39929 43.6937C8.20364 43.1848 8.12077 42.6548 8.15067 42.1037C8.17008 41.5482 8.29368 40.9926 8.52145 40.4368C9.05865 39.1259 9.813 38.2715 10.7845 37.8735C11.756 37.4755 12.8971 37.5451 14.208 38.0823L15.0889 38.4433L12.6715 44.3421C13.0428 44.4821 13.3884 44.5502 13.7084 44.5466C14.0178 44.5387 14.2951 44.4747 14.5403 44.3547C14.7854 44.2347 14.9994 44.0713 15.1821 43.8645C15.3587 43.6429 15.4985 43.4063 15.6016 43.1546C15.8208 42.6197 15.9076 42.1838 15.8621 41.8466C15.8165 41.5095 15.6653 41.221 15.4084 40.981L16.1885 39.0776C16.9901 39.6021 17.4758 40.2849 17.6455 41.1261C17.8152 41.9673 17.7002 42.8755 17.3005 43.8508ZM10.2526 41.0543C10.1537 41.2955 10.0863 41.5496 10.0504 41.8166C10.0188 42.0731 10.0346 42.3184 10.0979 42.5526C10.1611 42.7867 10.2845 43.0087 10.4679 43.2186C10.6514 43.4285 10.9035 43.6054 11.2243 43.7491L12.8166 39.8637C12.4662 39.7323 12.1542 39.6718 11.8805 39.6822C11.6111 39.682 11.3717 39.7431 11.1623 39.8655C10.9572 39.9774 10.7812 40.138 10.6342 40.3472C10.4872 40.5565 10.36 40.7922 10.2526 41.0543Z" fill="black"/>
<path d="M11.3731 32.3231L12.5808 30.6371L13.6588 31.4092C13.5576 31.2391 13.4762 31.0414 13.4146 30.816C13.3437 30.5841 13.3124 30.3456 13.3207 30.1005C13.3197 29.8489 13.3516 29.5999 13.4165 29.3537C13.488 29.0982 13.6095 28.8506 13.7811 28.6111C13.9065 28.436 14.0213 28.2952 14.1256 28.1886C14.2364 28.0728 14.3142 28.0031 14.359 27.9795L15.976 29.1377C15.8731 29.2035 15.7551 29.3001 15.6219 29.4277C15.486 29.5395 15.3323 29.7152 15.1607 29.9548C14.9627 30.2312 14.8405 30.4991 14.794 30.7586C14.7476 31.0181 14.7565 31.2684 14.8207 31.5096C14.8823 31.735 14.9947 31.9479 15.1578 32.1484C15.3209 32.3488 15.513 32.5283 15.7341 32.6867L20.0046 35.7456L18.6978 37.5699L11.3731 32.3231Z" fill="black"/>
<path d="M33.0806 21.5936C32.4978 21.8147 31.918 21.9318 31.341 21.9446C30.7746 21.9535 30.2377 21.8482 29.7301 21.6287C29.2225 21.4092 28.7602 21.0694 28.3432 20.6094C27.9262 20.1495 27.581 19.5592 27.3075 18.8387L27.1869 18.5208C26.9295 17.8427 26.8136 17.2018 26.8391 16.5981C26.8645 15.9945 26.9963 15.4475 27.2345 14.9571C27.4833 14.4626 27.8225 14.0308 28.2521 13.6617C28.6817 13.2926 29.1774 13.0015 29.7389 12.7883C30.3323 12.5631 30.887 12.4436 31.4029 12.4296C31.9295 12.4116 32.4039 12.48 32.8264 12.6349C33.2488 12.7897 33.6205 13.0184 33.9413 13.3209C34.2622 13.6234 34.519 13.9805 34.7116 14.3923L32.5818 15.2006C32.3483 14.8407 32.0568 14.5998 31.7075 14.4778C31.3647 14.3412 30.9337 14.3714 30.4145 14.5685C30.139 14.673 29.8975 14.8192 29.69 15.0071C29.4931 15.1909 29.3375 15.4197 29.2231 15.6934C29.1154 15.9525 29.0648 16.2504 29.0715 16.5873C29.0781 16.9242 29.1598 17.2993 29.3167 17.7126L29.4373 18.0304C29.6062 18.4755 29.8007 18.8441 30.0207 19.1364C30.2473 19.4141 30.4909 19.6247 30.7514 19.7682C31.0079 19.9012 31.2762 19.9691 31.5561 19.972C31.836 19.9749 32.119 19.922 32.405 19.8134C32.8183 19.6566 33.133 19.4159 33.3493 19.0914C33.5721 18.7523 33.6581 18.356 33.6072 17.9025L35.737 17.0943C35.861 17.5806 35.8894 18.0547 35.8222 18.5166C35.7617 18.9638 35.6121 19.3843 35.3736 19.7778C35.1456 20.1674 34.8373 20.5208 34.4485 20.838C34.0558 21.1447 33.5998 21.3965 33.0806 21.5936Z" fill="black"/>
<path d="M41.9097 18.0444C41.394 18.1204 40.9445 18.1408 40.5613 18.1057C40.1764 18.0593 39.8433 17.9366 39.5619 17.7375C39.2917 17.5367 39.0716 17.2484 38.9017 16.8725C38.7301 16.4854 38.6005 15.9947 38.5129 15.4005L37.2163 6.6045L39.4363 6.27726L40.6932 14.8041C40.7775 15.3759 40.9186 15.7504 41.1165 15.9274C41.3145 16.1044 41.6545 16.1574 42.1366 16.0863C42.26 16.0682 42.3665 16.0525 42.4562 16.0392C42.5442 16.0148 42.6323 15.9904 42.7203 15.9659L42.9955 17.8328C42.9091 17.8684 42.7482 17.9036 42.5127 17.9383C42.2789 17.9842 42.0779 18.0196 41.9097 18.0444Z" fill="black"/>
<path d="M48.8468 16.6964C48.2392 16.6234 47.6705 16.4638 47.1407 16.2176C46.6236 15.9615 46.1847 15.6234 45.8242 15.2035C45.4651 14.7722 45.2018 14.2555 45.0344 13.6533C44.8683 13.0398 44.8319 12.3448 44.9251 11.5684L44.9656 11.2308C45.0548 10.4881 45.245 9.85461 45.5362 9.33025C45.8274 8.8059 46.1916 8.38731 46.6287 8.07451C47.0671 7.75046 47.5559 7.52948 48.0951 7.41157C48.6357 7.28242 49.2042 7.25364 49.8006 7.32523C51.2071 7.49408 52.2316 7.99375 52.8738 8.82422C53.5161 9.65469 53.7528 10.7732 53.5839 12.1798L53.4705 13.125L47.1409 12.3652C47.1049 12.7603 47.1312 13.1117 47.2199 13.4191C47.3099 13.7152 47.4453 13.9655 47.6263 14.1699C47.8072 14.3742 48.0217 14.5369 48.2697 14.658C48.5303 14.7692 48.7956 14.841 49.0657 14.8734C49.6395 14.9423 50.0829 14.9099 50.3957 14.7763C50.7086 14.6426 50.9464 14.4201 51.1094 14.1086L53.1517 14.3538C52.8596 15.2661 52.3307 15.916 51.565 16.3035C50.7994 16.691 49.8933 16.822 48.8468 16.6964ZM49.6661 9.15827C49.4073 9.12721 49.1445 9.12989 48.8776 9.16634C48.6219 9.20414 48.3896 9.2847 48.1808 9.40802C47.9719 9.53133 47.7907 9.70934 47.6373 9.94204C47.4838 10.1747 47.3804 10.4648 47.3273 10.8123L51.4964 11.3128C51.5297 10.9401 51.505 10.6232 51.4222 10.3622C51.3506 10.1024 51.228 9.88796 51.0542 9.71872C50.8917 9.55082 50.6901 9.42388 50.4493 9.3379C50.2085 9.25192 49.9474 9.19205 49.6661 9.15827Z" fill="black"/>
<path d="M57.0495 16.8745C56.6007 16.6847 56.2305 16.4543 55.9391 16.1833C55.652 15.9019 55.437 15.5956 55.294 15.2645C55.1555 14.9228 55.0898 14.569 55.097 14.2029C55.1086 13.8263 55.1939 13.4501 55.3528 13.0744C56.0592 11.4043 57.404 10.9886 59.3873 11.8275L61.8611 12.8738L62.0266 12.4824C62.2562 11.9396 62.2921 11.5056 62.1343 11.1805C61.9869 10.8597 61.6471 10.5868 61.1148 10.3616C60.645 10.163 60.2705 10.103 59.9911 10.1817C59.7161 10.25 59.5122 10.3975 59.3793 10.6243L57.3126 9.75019C57.4836 9.40413 57.7136 9.10764 58.0026 8.86072C58.3021 8.61822 58.6443 8.44918 59.0292 8.3536C59.4291 8.25199 59.8695 8.22907 60.3504 8.28482C60.8358 8.33014 61.355 8.46979 61.9083 8.70378C62.4406 8.92894 62.8965 9.18944 63.2759 9.48527C63.6657 9.78552 63.9568 10.1301 64.1491 10.5191C64.3563 10.9021 64.4573 11.3324 64.4521 11.8101C64.447 12.2879 64.323 12.8138 64.0801 13.3879L62.7358 16.5663C62.5504 17.0046 62.3922 17.3931 62.2614 17.7315C62.1454 18.0639 62.0421 18.3955 61.9514 18.7263L60.0255 17.9118C60.0809 17.6645 60.1277 17.4812 60.1658 17.362C60.2188 17.2367 60.296 17.054 60.3976 16.814C60.0267 17.0509 59.5534 17.1952 58.9777 17.2471C58.4125 17.3033 57.7697 17.1791 57.0495 16.8745ZM58.3669 15.549C58.6175 15.655 58.876 15.7274 59.1426 15.7663C59.4135 15.7948 59.6717 15.7809 59.9169 15.7247C60.1666 15.658 60.3953 15.5394 60.6028 15.3687C60.8103 15.1981 60.9759 14.9667 61.0995 14.6744L61.2651 14.283L59.1827 13.4022C58.786 13.2344 58.4332 13.1959 58.1241 13.2867C57.8298 13.3714 57.6165 13.5703 57.484 13.8835C57.3427 14.2175 57.345 14.5322 57.4907 14.8277C57.6365 15.1231 57.9285 15.3636 58.3669 15.549Z" fill="black"/>
<path d="M69.9168 11.0405L71.5296 12.3446L70.6959 13.3757C71.1198 13.1938 71.6131 13.1335 72.1756 13.1949C72.747 13.2633 73.3499 13.5541 73.9845 14.0672C74.8393 14.7584 75.2886 15.5006 75.3322 16.2938C75.3847 17.0941 75.0618 17.9261 74.3634 18.7897L70.7292 23.2843L68.9843 21.8733L72.2978 17.7754C72.7254 17.2466 72.9359 16.7609 72.9293 16.3184C72.9316 15.883 72.6727 15.4551 72.1528 15.0347C71.8708 14.8066 71.5972 14.6583 71.3321 14.5897C71.0669 14.521 70.8077 14.5082 70.5543 14.5511C70.317 14.5923 70.089 14.685 69.8706 14.829C69.668 14.9713 69.4813 15.1482 69.3103 15.3597L65.9967 19.4577L64.2518 18.0467L69.9168 11.0405Z" fill="black"/>
<path d="M75.1069 26.6082C74.756 26.1067 74.4956 25.5766 74.3257 25.0176C74.1717 24.4614 74.1309 23.909 74.2034 23.3603C74.2851 22.8051 74.4946 22.2643 74.8316 21.7379C75.178 21.205 75.6716 20.7143 76.3122 20.266L76.5908 20.071C77.2036 19.6421 77.8025 19.3613 78.3875 19.2286C78.9724 19.0959 79.5272 19.0881 80.0517 19.2051C80.5856 19.3157 81.0763 19.5325 81.5237 19.8557C81.9805 20.1723 82.3811 20.5767 82.7255 21.0688C83.5378 22.2295 83.8487 23.326 83.6583 24.3585C83.4678 25.3909 82.7923 26.3133 81.6316 27.1255L80.8516 27.6714L77.1964 22.4484C76.8779 22.6851 76.6337 22.939 76.4637 23.2101C76.3031 23.4747 76.207 23.7426 76.1754 24.0137C76.1438 24.2848 76.1655 24.5531 76.2407 24.8187C76.3317 25.087 76.4551 25.3326 76.6111 25.5554C76.9425 26.029 77.2623 26.3377 77.5706 26.4817C77.8788 26.6256 78.2033 26.6544 78.5441 26.5681L79.7235 28.2534C78.8488 28.6442 78.0118 28.6836 77.2124 28.3715C76.4131 28.0595 75.7112 27.4717 75.1069 26.6082ZM81.27 22.1912C81.1206 21.9776 80.9432 21.7836 80.7381 21.609C80.5394 21.4437 80.3245 21.3244 80.0933 21.251C79.8621 21.1776 79.6087 21.1613 79.3329 21.2022C79.0571 21.243 78.7721 21.3595 78.4777 21.5516L80.8853 24.9919C81.1853 24.7681 81.4049 24.5384 81.5442 24.3025C81.69 24.076 81.768 23.8416 81.7782 23.5993C81.7949 23.3662 81.755 23.1313 81.6585 22.8945C81.562 22.6578 81.4325 22.4233 81.27 22.1912Z" fill="black"/>
<path d="M88.032 27.8822L88.7969 29.81L87.5644 30.299C87.7622 30.3059 87.9725 30.3443 88.1954 30.4144C88.4288 30.4803 88.6464 30.583 88.848 30.7224C89.0602 30.8577 89.2523 31.0193 89.4243 31.207C89.6006 31.4054 89.743 31.6415 89.8517 31.9154C89.9311 32.1155 89.9874 32.2883 90.0207 32.4336C90.0582 32.5894 90.0747 32.6926 90.0704 32.7431L88.2216 33.4766C88.2219 33.3545 88.2044 33.203 88.1692 33.0219C88.1486 32.8471 88.084 32.6228 87.9753 32.3489C87.8499 32.0329 87.6907 31.7852 87.4976 31.6057C87.3044 31.4263 87.0891 31.2984 86.8515 31.2219C86.6286 31.1519 86.3887 31.1312 86.1319 31.1599C85.8751 31.1887 85.6202 31.2532 85.3674 31.3535L80.4847 33.2908L79.6571 31.205L88.032 27.8822Z" fill="black"/>
</svg>
