<svg width="108" height="109" viewBox="0 0 108 109" fill="none" xmlns="http://www.w3.org/2000/svg">
<path d="M98.2867 54.9705L98.3677 53.8684L100.233 54.0054L100.152 55.1074L100.491 55.1323C101.35 55.1954 101.988 55.4809 102.405 55.9888C102.822 56.508 102.986 57.361 102.899 58.5478C102.887 58.7174 102.866 58.9261 102.836 59.1739C102.817 59.4339 102.79 59.6478 102.755 59.8157L100.856 59.6763C100.891 59.5084 100.916 59.3227 100.931 59.1193C100.956 58.9279 100.975 58.7475 100.988 58.578C101.019 58.1484 100.968 57.8435 100.833 57.6632C100.699 57.4829 100.473 57.3811 100.157 57.3578L99.9874 57.3454L99.8343 59.4308L97.9693 59.2938L98.1224 57.2085L91.0016 56.6856L91.1659 54.4476L98.2867 54.9705Z" fill="black"/>
<path d="M89.7818 63.1912C89.9441 62.6011 90.1863 62.0624 90.5085 61.575C90.8385 61.1016 91.2434 60.7193 91.7231 60.4281C92.2029 60.1369 92.753 59.9532 93.3734 59.877C93.9938 59.8009 94.681 59.8665 95.435 60.0739L95.7628 60.164C96.4731 60.3594 97.0644 60.6455 97.5367 61.0223C98.0091 61.399 98.3714 61.8337 98.6238 62.3263C98.8762 62.8189 99.0177 63.3514 99.0483 63.9241C99.0868 64.5106 99.0248 65.0989 98.8625 65.689C98.7002 66.2791 98.454 66.8108 98.124 67.2843C97.8049 67.7607 97.4109 68.146 96.9421 68.4402C96.4703 68.7453 95.9351 68.939 95.3365 69.0212C94.7379 69.1034 94.0835 69.0468 93.3732 68.8514L93.0454 68.7612C92.3023 68.5568 91.6837 68.2632 91.1895 67.8805C90.6953 67.4977 90.3181 67.053 90.0578 66.5465C89.7945 66.0509 89.642 65.5153 89.6006 64.9397C89.5591 64.3641 89.6195 63.7813 89.7818 63.1912ZM91.6176 63.6961C91.4493 64.3081 91.5281 64.8763 91.8539 65.4009C92.1768 65.9364 92.7754 66.3243 93.6496 66.5648L93.9774 66.655C94.7751 66.8744 95.4387 66.8336 95.9681 66.5326C96.5055 66.2455 96.8584 65.796 97.0267 65.184C97.198 64.5612 97.1262 63.989 96.8113 63.4674C96.5072 62.9489 95.9564 62.5799 95.1587 62.3605L94.8308 62.2703C93.9457 62.0268 93.229 62.0471 92.6807 62.3312C92.1433 62.6183 91.7889 63.0733 91.6176 63.6961Z" fill="black"/>
<path d="M87.2802 70.2122C87.5108 69.7829 87.7745 69.4357 88.0713 69.1706C88.3781 68.9109 88.703 68.7252 89.0461 68.6136C89.3991 68.5074 89.7575 68.4748 90.1214 68.5159C90.4952 68.5624 90.8619 68.6822 91.2213 68.8753C92.8187 69.7335 93.1078 71.1111 92.0886 73.0079L90.8174 75.3741L91.1918 75.5752C91.7109 75.8541 92.1397 75.9301 92.4781 75.8031C92.8111 75.6862 93.1144 75.3731 93.388 74.8639C93.6293 74.4147 93.7238 74.0473 93.6713 73.7618C93.6289 73.4817 93.5009 73.2649 93.2873 73.1116L94.3494 71.1348C94.6781 71.3372 94.952 71.5937 95.171 71.9044C95.3847 72.225 95.5213 72.5814 95.5808 72.9736C95.6448 73.3812 95.6268 73.8218 95.5267 74.2955C95.4366 74.7745 95.2494 75.2786 94.9651 75.8078C94.6915 76.3169 94.3899 76.7467 94.0601 77.097C93.725 77.4573 93.3549 77.7152 92.9498 77.8706C92.5493 78.0414 92.1114 78.102 91.6362 78.0526C91.161 78.0031 90.6489 77.8309 90.0998 77.5359L87.0598 75.9026C86.6405 75.6773 86.2684 75.4838 85.9435 75.3222C85.6233 75.1759 85.3027 75.0422 84.9818 74.9212L85.9714 73.0792C86.2125 73.1573 86.3906 73.2209 86.5058 73.2699C86.6256 73.3342 86.8003 73.4281 87.03 73.5515C86.8285 73.1602 86.7286 72.6756 86.7304 72.0976C86.7268 71.5295 86.9101 70.9011 87.2802 70.2122ZM88.4778 71.6469C88.349 71.8865 88.2529 72.1372 88.1895 72.399C88.136 72.6662 88.1259 72.9245 88.1591 73.1739C88.2023 73.4287 88.2993 73.6674 88.4499 73.8898C88.6006 74.1123 88.8157 74.2986 89.0952 74.4488L89.4696 74.6499L90.5397 72.6582C90.7435 72.2788 90.8146 71.931 90.7529 71.6149C90.6958 71.314 90.5175 71.0831 90.218 70.9222C89.8985 70.7506 89.5849 70.7236 89.2772 70.8413C88.9696 70.9591 88.7031 71.2276 88.4778 71.6469Z" fill="black"/>
<path d="M92.1895 80.9588L90.7662 82.4673L89.7894 81.5457C89.8678 81.7598 89.9185 81.9869 89.9415 82.2267C89.9567 82.4748 89.944 82.7277 89.9034 82.9855C89.855 83.2514 89.7702 83.5064 89.6491 83.7505C89.5283 84.0105 89.363 84.2519 89.153 84.4744C88.6552 85.002 88.1592 85.3131 87.6649 85.4076C87.1628 85.5104 86.6762 85.4564 86.205 85.2456C86.3801 85.7536 86.4154 86.2777 86.3109 86.8179C86.2068 87.3742 85.9331 87.8872 85.4898 88.3571C84.8287 89.0578 84.125 89.3989 83.3789 89.3805C82.641 89.3699 81.8599 88.9757 81.0355 88.198L76.7696 84.1731L78.3095 82.5409L82.2046 86.2158C82.7239 86.7058 83.1724 86.9653 83.55 86.9944C83.9199 87.0318 84.2799 86.865 84.6298 86.494C84.941 86.1643 85.0776 85.7634 85.0398 85.2915C85.0103 84.8274 84.773 84.3853 84.3278 83.9653L80.4328 80.2904L81.9728 78.6582L85.8678 82.3331C86.3871 82.8231 86.8356 83.0827 87.2133 83.1118C87.5832 83.1491 87.9431 82.9823 88.2931 82.6114C88.6042 82.2816 88.7409 81.8808 88.7031 81.4089C88.6736 80.9447 88.4362 80.5027 87.9911 80.0827L84.0961 76.4078L85.636 74.7756L92.1895 80.9588Z" fill="black"/>
<path d="M75.7744 92.9173L76.7611 92.4197L77.6031 94.0893L76.6165 94.5869L76.7696 94.8905C77.1575 95.6596 77.241 96.3537 77.0201 96.9728C76.7891 97.597 76.1424 98.177 75.0798 98.7129C74.9281 98.7895 74.7383 98.8788 74.5106 98.981C74.2778 99.0983 74.0805 99.1852 73.9185 99.2415L73.0611 97.5415C73.2231 97.4852 73.3951 97.4111 73.5773 97.3192C73.7544 97.2426 73.9189 97.166 74.0707 97.0894C74.4552 96.8955 74.6902 96.6945 74.7756 96.4864C74.8611 96.2783 74.8324 96.0325 74.6895 95.7492L74.6129 95.5974L72.7459 96.539L71.9038 94.8693L73.7708 93.9277L70.5557 87.5526L72.5593 86.5421L75.7744 92.9173Z" fill="black"/>
<path d="M64.3819 89.8206C64.9713 89.656 65.5579 89.5864 66.1415 89.6118C66.7173 89.6511 67.2535 89.8015 67.7501 90.0629C68.2466 90.3243 68.6873 90.7014 69.0719 91.1941C69.4565 91.6869 69.754 92.3098 69.9643 93.063L70.0557 93.3905C70.2537 94.1001 70.3128 94.7543 70.2329 95.3531C70.153 95.952 69.9668 96.4864 69.6744 96.9563C69.382 97.4263 68.9981 97.8217 68.5229 98.1426C68.0399 98.4775 67.5036 98.7272 66.9141 98.8918C66.3247 99.0563 65.742 99.1189 65.1663 99.0796C64.5935 99.0512 64.0604 98.9118 63.5669 98.6613C63.0624 98.4138 62.6209 98.0546 62.2424 97.5837C61.8638 97.1128 61.5755 96.5226 61.3775 95.8131L61.286 95.4856C61.0788 94.7433 61.0121 94.0618 61.086 93.4411C61.1598 92.8204 61.3469 92.2681 61.6471 91.7842C61.9365 91.3033 62.3173 90.897 62.7894 90.5652C63.2616 90.2333 63.7924 89.9851 64.3819 89.8206ZM64.8938 91.6545C64.2825 91.8251 63.8359 92.1851 63.5539 92.7345C63.2609 93.2869 63.2364 93.9998 63.4802 94.8731L63.5716 95.2006C63.794 95.9974 64.1705 96.5454 64.7011 96.8444C65.2239 97.1574 65.7909 97.2285 66.4022 97.0579C67.0244 96.8842 67.478 96.5281 67.7631 95.9896C68.0512 95.4621 68.084 94.7999 67.8616 94.003L67.7701 93.6755C67.5233 92.7913 67.137 92.1873 66.6112 91.8634C66.0885 91.5504 65.516 91.4808 64.8938 91.6545Z" fill="black"/>
<path d="M57.1124 91.2721C57.5992 91.2495 58.0325 91.2975 58.4124 91.4161C58.7928 91.5459 59.119 91.7294 59.3909 91.9664C59.6634 92.2147 59.8754 92.5055 60.027 92.8388C60.1791 93.1835 60.2646 93.5596 60.2835 93.9672C60.3675 95.7786 59.3339 96.7341 57.1829 96.8338L54.4998 96.9581L54.5195 97.3827C54.5467 97.9714 54.7017 98.3783 54.9845 98.6035C55.2559 98.8291 55.6803 98.9286 56.2576 98.9018C56.7671 98.8782 57.1308 98.7706 57.3489 98.579C57.5674 98.3987 57.6876 98.1775 57.7095 97.9156L59.9511 97.8117C59.9463 98.1977 59.8669 98.5644 59.7128 98.9119C59.5474 99.2599 59.3117 99.5602 59.0057 99.8126C58.689 100.077 58.3017 100.288 57.8438 100.445C57.3864 100.614 56.8577 100.712 56.2577 100.74C55.6803 100.767 55.1567 100.728 54.6867 100.625C54.2055 100.523 53.7941 100.338 53.4527 100.07C53.1005 99.814 52.8236 99.4694 52.622 99.0363C52.4204 98.6031 52.3051 98.0753 52.2763 97.4526L52.1165 94.0053C52.0945 93.5298 52.0694 93.1112 52.0413 92.7494C52.0024 92.3995 51.9524 92.0558 51.8914 91.7183L53.9802 91.6215C54.037 91.8684 54.074 92.0539 54.0911 92.1779C54.0974 92.3138 54.1065 92.5119 54.1186 92.7723C54.3509 92.3985 54.7155 92.0639 55.2123 91.7686C55.6979 91.4738 56.3312 91.3083 57.1124 91.2721ZM56.4964 93.0365C56.2247 93.0491 55.9602 93.0954 55.703 93.1754C55.4462 93.2667 55.2194 93.3907 55.0224 93.5473C54.826 93.7152 54.671 93.9209 54.5575 94.1645C54.444 94.408 54.3946 94.6882 54.4093 95.0052L54.429 95.4298L56.6875 95.3251C57.1177 95.3052 57.4526 95.1875 57.6923 94.9722C57.9211 94.7687 58.0276 94.4972 58.0119 94.1575C57.9951 93.7953 57.8572 93.5123 57.5982 93.3088C57.3391 93.1052 56.9719 93.0145 56.4964 93.0365Z" fill="black"/>
<path d="M50.2698 100.992L48.2436 100.549L48.5304 99.237C48.3872 99.4145 48.2187 99.5749 48.025 99.7181C47.8202 99.859 47.5969 99.9784 47.3551 100.076C47.1022 100.172 46.8399 100.231 46.5683 100.252C46.2832 100.283 45.9912 100.265 45.6923 100.2C44.9837 100.045 44.4615 99.7803 44.1259 99.4053C43.7791 99.0279 43.5748 98.583 43.5127 98.0706C43.1675 98.4824 42.7365 98.7826 42.2196 98.9712C41.6892 99.1685 41.1085 99.1982 40.4774 99.0603C39.5363 98.8545 38.8814 98.4272 38.5129 97.7782C38.1419 97.1402 38.0774 96.2677 38.3194 95.1605L39.5718 89.4308L41.764 89.9099L40.6205 95.1414C40.4681 95.839 40.4766 96.3571 40.6462 96.6958C40.8047 97.032 41.1331 97.2546 41.6313 97.3635C42.0742 97.4603 42.4882 97.371 42.8732 97.0955C43.2558 96.8311 43.5125 96.4 43.6432 95.8021L44.7867 90.5706L46.9789 91.0498L45.8354 96.2813C45.6829 96.9788 45.6915 97.4969 45.8611 97.8356C46.0196 98.1719 46.348 98.3945 46.8462 98.5034C47.2891 98.6002 47.703 98.5109 48.0881 98.2354C48.4707 97.971 48.7273 97.5399 48.858 96.942L50.0015 91.7105L52.1938 92.1897L50.2698 100.992Z" fill="black"/>
<path d="M31.6352 93.0476L32.5675 93.6408L31.5636 95.2185L30.6314 94.6253L30.4488 94.9122C29.9865 95.6389 29.4328 96.0657 28.7878 96.1927C28.1333 96.3135 27.3041 96.0546 26.3001 95.4158C26.1566 95.3245 25.9828 95.2072 25.7785 95.0638C25.5586 94.9238 25.383 94.7987 25.2517 94.6883L26.2738 93.0819C26.4051 93.1923 26.5568 93.3022 26.7289 93.4117C26.8854 93.5247 27.0353 93.6268 27.1787 93.7181C27.5421 93.9493 27.835 94.0484 28.0575 94.0153C28.2801 93.9823 28.4765 93.8319 28.6468 93.5641L28.7381 93.4207L26.9739 92.2982L27.9778 90.7205L29.742 91.843L33.5748 85.819L35.4681 87.0236L31.6352 93.0476Z" fill="black"/>
<path d="M28.4695 81.6784C28.9131 82.1 29.2737 82.5678 29.5513 83.0818C29.8129 83.5962 29.9589 84.1336 29.9892 84.694C30.0195 85.2544 29.9218 85.826 29.6961 86.4089C29.4704 86.9919 29.0883 87.5668 28.5495 88.1336L28.3153 88.3801C27.8078 88.914 27.2765 89.3003 26.7215 89.5389C26.1664 89.7775 25.6121 89.8918 25.0587 89.8818C24.5054 89.8718 23.969 89.7452 23.4498 89.5019C22.9145 89.259 22.4251 88.9267 21.9815 88.5051C21.5379 88.0835 21.1853 87.6155 20.9237 87.1011C20.6543 86.5949 20.5005 86.0657 20.4624 85.5135C20.4161 84.9536 20.498 84.3903 20.708 83.8238C20.9181 83.2573 21.2768 82.7071 21.7843 82.1731L22.0185 81.9267C22.5495 81.368 23.1003 80.9612 23.671 80.7062C24.2417 80.4512 24.8117 80.3285 25.3811 80.338C25.9423 80.3398 26.4864 80.4582 27.0135 80.6933C27.5405 80.9284 28.0259 81.2568 28.4695 81.6784ZM27.1578 83.0585C26.6978 82.6213 26.1596 82.4225 25.5434 82.4623C24.9189 82.4942 24.2944 82.8387 23.6698 83.496L23.4356 83.7424C22.8656 84.3421 22.5884 84.9464 22.6039 85.5552C22.6033 86.1645 22.8331 86.6878 23.2931 87.125C23.7614 87.57 24.2997 87.7768 24.9082 87.7452C25.5088 87.7219 26.0941 87.4104 26.6641 86.8107L26.8983 86.5643C27.5307 85.8989 27.8511 85.2574 27.8594 84.6399C27.86 84.0307 27.6261 83.5035 27.1578 83.0585Z" fill="black"/>
<path d="M23.4757 76.1734C23.7463 76.5787 23.9289 76.9746 24.0235 77.3612C24.1086 77.7541 24.1198 78.1281 24.0572 78.4833C23.9851 78.8449 23.8455 79.1766 23.6382 79.4785C23.4215 79.7866 23.1435 80.054 22.8042 80.2806C21.2961 81.2874 19.9442 80.8954 18.7486 79.1045L17.2572 76.8706L16.9037 77.1065C16.4136 77.4338 16.145 77.7766 16.0981 78.1349C16.0449 78.4839 16.1788 78.8987 16.4997 79.3794C16.7829 79.8036 17.0628 80.0596 17.3395 80.1474C17.6067 80.2415 17.8582 80.2304 18.0939 80.1139L19.3398 81.9802C19.0068 82.1753 18.6516 82.2966 18.2745 82.344C17.891 82.3819 17.5122 82.335 17.1381 82.2033C16.7482 82.0684 16.3677 81.8454 15.9966 81.5345C15.6161 81.2298 15.2591 80.8277 14.9255 80.3282C14.6046 79.8474 14.367 79.3793 14.2127 78.9236C14.052 78.4585 13.9983 78.0106 14.0515 77.5799C14.0889 77.1461 14.2411 76.7311 14.508 76.3349C14.7749 75.9386 15.1676 75.5675 15.686 75.2214L18.5562 73.3052C18.952 73.0409 19.2977 72.8034 19.593 72.5926C19.8726 72.3786 20.1412 72.1584 20.3988 71.932L21.5598 73.671C21.3776 73.8472 21.2378 73.9745 21.1404 74.0532C21.0273 74.1287 20.8624 74.2388 20.6456 74.3836C21.0857 74.3896 21.5604 74.5291 22.0698 74.8023C22.5729 75.066 23.0415 75.523 23.4757 76.1734ZM21.6466 76.5565C21.4956 76.3303 21.3194 76.1277 21.1181 75.9486C20.9074 75.7759 20.6841 75.6456 20.4483 75.5577C20.2031 75.4762 19.9469 75.4496 19.6797 75.4781C19.4126 75.5065 19.147 75.6089 18.8831 75.7851L18.5297 76.021L19.7851 77.9015C20.0242 78.2597 20.2978 78.4858 20.6059 78.5799C20.8983 78.6709 21.1859 78.622 21.4687 78.4332C21.7703 78.2318 21.9414 77.9676 21.9821 77.6407C22.0227 77.3138 21.9109 76.9524 21.6466 76.5565Z" fill="black"/>
<path d="M11.7189 75.5367L11.0564 73.5714L12.329 73.1424C12.1031 73.1109 11.8789 73.0489 11.6564 72.9565C11.4303 72.8533 11.213 72.7232 11.0046 72.5663C10.7926 72.3985 10.6074 72.2038 10.4489 71.9822C10.2761 71.7534 10.1408 71.494 10.0431 71.204C9.81141 70.5167 9.77001 69.9326 9.91892 69.4519C10.0642 68.9604 10.3406 68.5563 10.7481 68.2395C10.2174 68.1553 9.7382 67.9401 9.31054 67.5939C8.86853 67.2406 8.54434 66.7578 8.33799 66.1457C8.03028 65.2328 8.05989 64.4514 8.42684 63.8015C8.78306 63.1552 9.49814 62.651 10.5721 62.289L16.1298 60.4155L16.8466 62.542L11.7722 64.2525C11.0956 64.4806 10.6557 64.7545 10.4525 65.0741C10.2457 65.383 10.2237 65.7791 10.3866 66.2624C10.5314 66.692 10.821 67.001 11.2553 67.1895C11.6788 67.3816 12.1806 67.3799 12.7605 67.1844L17.8349 65.4739L18.5517 67.6003L13.4773 69.3109C12.8007 69.5389 12.3608 69.8128 12.1576 70.1325C11.9508 70.4414 11.9288 70.8375 12.0917 71.3208C12.2365 71.7503 12.5261 72.0594 12.9604 72.2479C13.3839 72.44 13.8857 72.4383 14.4656 72.2428L19.5401 70.5322L20.2568 72.6587L11.7189 75.5367Z" fill="black"/>
<path d="M8.8981 55.3399L8.86825 56.4445L6.99893 56.394L7.02878 55.2894L6.68891 55.2802C5.82789 55.2569 5.17722 55.0013 4.73691 54.5132C4.29691 54.0138 4.09298 53.1693 4.12513 51.9797C4.12972 51.8098 4.14105 51.6004 4.15912 51.3514C4.16616 51.0909 4.18331 50.8759 4.21056 50.7066L6.11386 50.758C6.08661 50.9274 6.07023 51.114 6.06472 51.3179C6.04818 51.5102 6.03762 51.6913 6.03303 51.8612C6.02139 52.2918 6.08692 52.594 6.22961 52.7679C6.37229 52.9418 6.60225 53.0331 6.91946 53.0416L7.0894 53.0462L7.14589 50.956L9.01521 51.0065L8.95872 53.0967L16.0961 53.2896L16.0355 55.5328L8.8981 55.3399Z" fill="black"/>
<path d="M17.0115 46.7008C16.8763 47.2977 16.6589 47.8469 16.3593 48.3484C16.0512 48.8364 15.6642 49.2368 15.1982 49.5495C14.7322 49.8623 14.1911 50.0709 13.5748 50.1753C12.9585 50.2797 12.269 50.2455 11.5063 50.0727L11.1747 49.9975C10.4563 49.8347 9.85254 49.5759 9.36353 49.2211C8.87452 48.8663 8.49271 48.4486 8.21812 47.968C7.94353 47.4874 7.77791 46.9618 7.72127 46.3912C7.65609 45.807 7.69111 45.2165 7.82635 44.6196C7.96159 44.0228 8.18327 43.4804 8.49139 42.9924C8.78845 42.5019 9.16444 42.099 9.61935 41.7838C10.0768 41.4574 10.6026 41.2396 11.1968 41.1302C11.791 41.0208 12.4473 41.0475 13.1658 41.2103L13.4974 41.2854C14.249 41.4557 14.8803 41.7208 15.3914 42.0806C15.9026 42.4405 16.2997 42.8674 16.5828 43.3615C16.8685 43.8446 17.0452 44.3727 17.1128 44.9458C17.1805 45.519 17.1468 46.104 17.0115 46.7008ZM15.1546 46.2801C15.2948 45.6611 15.1902 45.097 14.8408 44.5879C14.4938 44.0677 13.8782 43.7074 12.994 43.5071L12.6624 43.4319C11.8555 43.2491 11.1944 43.3201 10.6793 43.645C10.1555 43.9563 9.82353 44.4214 9.68328 45.0404C9.54053 45.6704 9.63836 46.2388 9.97677 46.7454C10.3041 47.2495 10.8712 47.593 11.6781 47.7758L12.0097 47.851C12.905 48.0538 13.6201 48.0009 14.1549 47.6921C14.6786 47.3808 15.0118 46.9101 15.1546 46.2801Z" fill="black"/>
<path d="M19.1803 39.5626C18.9689 40.0017 18.7209 40.3603 18.4361 40.6383C18.1412 40.9114 17.8249 41.1113 17.4872 41.2381C17.1392 41.3599 16.7826 41.4084 16.4173 41.3835C16.0417 41.3537 15.6701 41.2503 15.3025 41.0734C13.6685 40.287 13.3185 38.9236 14.2523 36.9833L15.4171 34.563L15.0342 34.3787C14.5031 34.1232 14.0714 34.0663 13.739 34.2082C13.4115 34.3399 13.1224 34.6661 12.8718 35.1869C12.6506 35.6465 12.5725 36.0177 12.6376 36.3006C12.6925 36.5785 12.83 36.7893 13.0502 36.933L12.077 38.955C11.7396 38.7675 11.4546 38.5234 11.222 38.2228C10.9943 37.912 10.842 37.562 10.7651 37.1728C10.683 36.7685 10.6814 36.3275 10.7604 35.8499C10.8291 35.3673 10.9938 34.8554 11.2542 34.3141C11.5049 33.7933 11.7872 33.3506 12.101 32.9859C12.4198 32.6111 12.7781 32.337 13.1759 32.1637C13.5684 31.9753 14.0032 31.8953 14.4801 31.9236C14.957 31.9518 15.4763 32.1011 16.0379 32.3715L19.1475 33.868C19.5765 34.0745 19.9568 34.2512 20.2885 34.3983C20.6149 34.5302 20.9411 34.6495 21.2671 34.7561L20.3603 36.6402C20.116 36.5729 19.9352 36.5174 19.818 36.4735C19.6954 36.4146 19.5167 36.3285 19.2818 36.2155C19.5005 36.5974 19.6218 37.0772 19.6457 37.6547C19.6745 38.222 19.5194 38.8579 19.1803 39.5626ZM17.9201 38.1825C18.038 37.9375 18.1229 37.6827 18.1747 37.4184C18.2162 37.1491 18.2148 36.8906 18.1706 36.6429C18.116 36.3902 18.0086 36.1561 17.8482 35.9406C17.6878 35.7251 17.4647 35.5485 17.1787 35.4109L16.7958 35.2265L15.8152 37.2639C15.6285 37.6519 15.5729 38.0025 15.6486 38.3157C15.719 38.6137 15.9074 38.8364 16.2138 38.9839C16.5406 39.1411 16.855 39.1541 17.1572 39.0228C17.4593 38.8916 17.7136 38.6115 17.9201 38.1825Z" fill="black"/>
<path d="M13.6883 29.1751L15.0388 27.601L16.0581 28.4754C15.9697 28.2652 15.9083 28.0408 15.874 27.8023C15.847 27.5552 15.8478 27.302 15.8762 27.0426C15.9119 26.7747 15.9846 26.5159 16.0941 26.2664C16.2024 26.001 16.3561 25.7521 16.5554 25.5198C17.0277 24.9693 17.5085 24.6352 17.9978 24.5174C18.4944 24.391 18.9831 24.422 19.4636 24.6102C19.2647 24.1111 19.2047 23.5892 19.2836 23.0447C19.3613 22.4842 19.6105 21.9588 20.0311 21.4685C20.6584 20.7373 21.3451 20.3633 22.0912 20.3464C22.8288 20.3222 23.6277 20.679 24.4879 21.417L28.9392 25.2358L27.4781 26.939L23.4138 23.4522C22.8719 22.9873 22.4116 22.7492 22.033 22.738C21.6618 22.7181 21.3101 22.9018 20.9781 23.2888C20.6829 23.6329 20.5653 24.0397 20.6253 24.5093C20.6768 24.9716 20.9347 25.4019 21.3992 25.8004L25.4635 29.2872L24.0024 30.9903L19.9381 27.5035C19.3962 27.0386 18.9359 26.8006 18.5573 26.7893C18.1861 26.7695 17.8344 26.9531 17.5024 27.3402C17.2072 27.6843 17.0896 28.0911 17.1496 28.5607C17.2011 29.0229 17.459 29.4533 17.9235 29.8518L21.9878 33.3386L20.5266 35.0417L13.6883 29.1751Z" fill="black"/>
<path d="M29.3519 16.5115L28.3904 17.0559L27.469 15.4286L28.4306 14.8842L28.2631 14.5883C27.8388 13.8387 27.722 13.1495 27.9129 12.5205C28.1136 11.8859 28.7318 11.2754 29.7673 10.6891C29.9153 10.6054 30.1005 10.507 30.3231 10.394C30.5499 10.2656 30.7429 10.1694 30.902 10.1054L31.84 11.7622C31.6809 11.8263 31.5126 11.9085 31.3351 12.009C31.1618 12.0941 31.0013 12.1785 30.8533 12.2623C30.4786 12.4744 30.2535 12.6865 30.1781 12.8985C30.1028 13.1105 30.1433 13.3545 30.2996 13.6307L30.3834 13.7786L32.203 12.7484L33.1243 14.3757L31.3047 15.4059L34.8224 21.6192L32.8697 22.7248L29.3519 16.5115Z" fill="black"/>
<path d="M41.0275 18.9532C40.4461 19.1443 39.8633 19.2404 39.2791 19.2416C38.7022 19.2284 38.1597 19.1025 37.6518 18.8638C37.1439 18.6252 36.6866 18.2685 36.28 17.7937C35.8734 17.3189 35.548 16.7101 35.3038 15.9672L35.1977 15.6442C34.9676 14.9444 34.8789 14.2935 34.9316 13.6916C34.9843 13.0897 35.146 12.5475 35.4168 12.0647C35.6877 11.582 36.0531 11.1696 36.5133 10.8275C36.9807 10.471 37.5051 10.1972 38.0865 10.0061C38.6679 9.81502 39.2471 9.72604 39.824 9.7392C40.3975 9.74158 40.9364 9.85672 41.4407 10.0846C41.9559 10.309 42.4132 10.6478 42.8127 11.101C43.2123 11.5542 43.527 12.1308 43.7571 12.8306L43.8633 13.1536C44.1039 13.8857 44.2014 14.5635 44.1558 15.1869C44.1102 15.8103 43.9484 16.3705 43.6704 16.8675C43.4031 17.361 43.0412 17.7842 42.5845 18.1371C42.1279 18.49 41.6089 18.762 41.0275 18.9532ZM40.4329 17.1444C41.0359 16.9462 41.4657 16.5663 41.7225 16.0047C41.9901 15.4395 41.9823 14.7263 41.6992 13.865L41.593 13.542C41.3346 12.756 40.9337 12.2257 40.39 11.9511C39.8537 11.6621 39.284 11.6167 38.6811 11.8149C38.0674 12.0166 37.6304 12.3929 37.37 12.9438C37.1061 13.4839 37.1034 14.1469 37.3617 14.9328L37.4679 15.2558C37.7546 16.1279 38.1679 16.7138 38.7078 17.0135C39.2442 17.3025 39.8192 17.3461 40.4329 17.1444Z" fill="black"/>
<path d="M48.301 17.1293C47.8157 17.1744 47.3806 17.1465 46.9957 17.0456C46.6096 16.9335 46.2753 16.7653 45.9927 16.5411C45.7091 16.3057 45.4839 16.025 45.317 15.699C45.1491 15.3617 45.0463 14.99 45.0086 14.5837C44.841 12.7781 45.8293 11.7758 47.9734 11.5768L50.6479 11.3286L50.6087 10.9054C50.5542 10.3186 50.3805 9.91928 50.0877 9.70744C49.8062 9.49455 49.3776 9.41481 48.8021 9.46823C48.2943 9.51536 47.9359 9.63968 47.727 9.84118C47.517 10.0314 47.4071 10.2579 47.3973 10.5206L45.1629 10.7279C45.1499 10.3422 45.2123 9.97214 45.3502 9.61789C45.4993 9.26258 45.7209 8.95178 46.0148 8.68547C46.319 8.40683 46.6962 8.17833 47.1463 7.99997C47.5954 7.81032 48.119 7.68774 48.7171 7.63223C49.2926 7.57881 49.8174 7.5927 50.2916 7.67389C50.7771 7.75403 51.1966 7.91997 51.55 8.17172C51.9137 8.41113 52.2063 8.74252 52.4277 9.16587C52.6491 9.58922 52.7886 10.1112 52.8462 10.7319L53.1651 14.1681C53.2091 14.6421 53.2535 15.0591 53.2983 15.4192C53.3534 15.7669 53.4192 16.1079 53.4957 16.4423L51.4137 16.6355C51.3455 16.3915 51.3 16.2079 51.2772 16.0848C51.2646 15.9494 51.2463 15.7519 51.2222 15.4924C51.0074 15.8765 50.6587 16.2276 50.176 16.5455C49.7047 16.8625 49.0796 17.0571 48.301 17.1293ZM48.8347 15.3383C49.1056 15.3132 49.3676 15.2547 49.6209 15.1629C49.8731 15.0598 50.094 14.9255 50.2835 14.76C50.472 14.5831 50.6173 14.3705 50.7194 14.122C50.8215 13.8734 50.8579 13.5912 50.8286 13.2752L50.7893 12.8521L48.538 13.061C48.1092 13.1008 47.7801 13.2338 47.5507 13.46C47.3315 13.6738 47.2376 13.95 47.269 14.2885C47.3025 14.6497 47.4534 14.9259 47.7215 15.1173C47.9897 15.3086 48.3608 15.3823 48.8347 15.3383Z" fill="black"/>
<path d="M54.5075 7.06192L56.5518 7.41146L56.3255 8.73525C56.4604 8.55136 56.6214 8.38342 56.8083 8.23142C57.0065 8.08133 57.2241 7.95182 57.4611 7.84288C57.7094 7.73586 57.9687 7.66521 58.239 7.63095C58.5224 7.58742 58.8149 7.59144 59.1165 7.64301C59.8315 7.76526 60.3652 8.00599 60.7177 8.3652C61.0814 8.72633 61.3059 9.1614 61.3914 9.67041C61.7173 9.24324 62.1342 8.92359 62.6419 8.71145C63.1626 8.49005 63.7414 8.43379 64.3781 8.54266C65.3277 8.70502 66.0014 9.10192 66.3994 9.73335C66.7992 10.3536 66.9037 11.2223 66.7127 12.3394L65.7242 18.1205L63.5123 17.7423L64.4148 12.4639C64.5351 11.7601 64.5028 11.243 64.3179 10.9124C64.1441 10.5838 63.8059 10.3765 63.3032 10.2905C62.8563 10.2141 62.4469 10.3223 62.0749 10.6151C61.7048 10.8968 61.4682 11.3392 61.3651 11.9425L60.4625 17.2209L58.2506 16.8427L59.1532 11.5643C59.2735 10.8605 59.2412 10.3433 59.0563 10.0128C58.8825 9.68411 58.5443 9.4768 58.0416 9.39085C57.5947 9.31445 57.1853 9.42266 56.8133 9.71548C56.4432 9.99714 56.2066 10.4396 56.1034 11.0428L55.2009 16.3212L52.989 15.943L54.5075 7.06192Z" fill="black"/>
<path d="M73.6746 14.1425L72.7171 13.591L73.6504 11.9705L74.6079 12.522L74.7776 12.2274C75.2075 11.481 75.7418 11.0301 76.3805 10.8749C77.029 10.7252 77.8689 10.9474 78.9001 11.5413C79.0474 11.6261 79.2263 11.7357 79.4367 11.8699C79.6626 12 79.8435 12.1173 79.9795 12.2218L79.0293 13.8717C78.8933 13.7672 78.7369 13.6641 78.5601 13.5623C78.3988 13.4563 78.2445 13.3609 78.0972 13.276C77.724 13.0611 77.427 12.9751 77.2061 13.0179C76.9853 13.0607 76.7957 13.2196 76.6373 13.4946L76.5525 13.6419L78.3644 14.6855L77.4311 16.306L75.6192 15.2624L72.0557 21.4496L70.1112 20.3297L73.6746 14.1425Z" fill="black"/>
<path d="M77.3768 25.3578C76.9153 24.9559 76.5346 24.5043 76.2348 24.0029C75.951 23.5004 75.7818 22.9698 75.7271 22.4113C75.6724 21.8528 75.7451 21.2774 75.9451 20.6852C76.1451 20.093 76.5019 19.502 77.0154 18.9122L77.2386 18.6558C77.7224 18.1002 78.2363 17.6911 78.7804 17.4285C79.3246 17.166 79.8733 17.0276 80.4266 17.0134C80.9799 16.9992 81.5212 17.1024 82.0506 17.3228C82.596 17.5422 83.0994 17.8528 83.561 18.2546C84.0226 18.6565 84.3953 19.1087 84.679 19.6112C84.9703 20.1052 85.1469 20.6271 85.2091 21.1771C85.2798 21.7345 85.2225 22.3008 85.0374 22.8759C84.8522 23.451 84.5178 24.0164 84.0341 24.572L83.8108 24.8284C83.3048 25.4097 82.7722 25.8401 82.2132 26.1198C81.6542 26.3994 81.09 26.5469 80.5207 26.5622C79.96 26.5849 79.4112 26.4903 78.8744 26.2784C78.3376 26.0665 77.8384 25.7596 77.3768 25.3578ZM78.6271 23.9218C79.1057 24.3385 79.652 24.5136 80.266 24.447C80.8885 24.3879 81.4974 24.0164 82.0927 23.3326L82.316 23.0762C82.8592 22.4522 83.1099 21.8364 83.0678 21.2288C83.0418 20.6201 82.7894 20.1074 82.3108 19.6906C81.8235 19.2665 81.2767 19.0834 80.6702 19.1414C80.0711 19.1909 79.5 19.5276 78.9567 20.1516L78.7335 20.408C78.1307 21.1004 77.8386 21.7552 77.8572 22.3724C77.8832 22.9811 78.1398 23.4976 78.6271 23.9218Z" fill="black"/>
<path d="M82.6384 30.6379C82.3503 30.2449 82.1506 29.8573 82.0391 29.4753C81.9369 29.0865 81.9092 28.7133 81.9562 28.3557C82.0123 27.9913 82.1373 27.6538 82.3311 27.3431C82.5341 27.0257 82.8001 26.7464 83.1291 26.5052C84.5916 25.4332 85.9594 25.7655 87.2325 27.5022L88.8204 29.6686L89.1632 29.4173C89.6385 29.0689 89.8917 28.7147 89.9229 28.3546C89.9607 28.0036 89.8088 27.5951 89.4671 27.1289C89.1656 26.7176 88.8747 26.4741 88.5944 26.3985C88.3233 26.3162 88.0726 26.3384 87.8423 26.4651L86.5156 24.6552C86.8398 24.4457 87.1893 24.309 87.564 24.2451C87.9454 24.1903 88.3259 24.2206 88.7054 24.3358C89.1008 24.4535 89.4907 24.6595 89.8751 24.9538C90.2687 25.2415 90.643 25.6276 90.9981 26.112C91.3398 26.5782 91.5978 27.0355 91.7719 27.484C91.9528 27.9416 92.0261 28.3867 91.9919 28.8193C91.9736 29.2543 91.8397 29.6756 91.5905 30.0832C91.3412 30.4907 90.9652 30.8787 90.4624 31.2473L87.6791 33.2875C87.2952 33.5689 86.9603 33.8214 86.6745 34.0449C86.4046 34.2709 86.1459 34.5027 85.8985 34.7403L84.6623 33.0538C84.8366 32.8699 84.9706 32.7364 85.0645 32.6536C85.1742 32.5732 85.3341 32.4559 85.5444 32.3018C85.1045 32.3152 84.6241 32.1965 84.1032 31.946C83.589 31.7046 83.1008 31.2686 82.6384 30.6379ZM84.449 30.1749C84.6098 30.3943 84.7947 30.589 85.0037 30.759C85.2217 30.9224 85.4505 31.0427 85.6899 31.1202C85.9385 31.1909 86.1956 31.2062 86.4613 31.166C86.7269 31.1259 86.9877 31.012 87.2437 30.8244L87.5864 30.5731L86.2497 28.7496C85.9951 28.4022 85.7119 28.1883 85.3999 28.1078C85.1038 28.0298 84.8187 28.0912 84.5445 28.2922C84.2519 28.5067 84.0926 28.7781 84.0663 29.1065C84.04 29.4349 84.1676 29.791 84.449 30.1749Z" fill="black"/>
<path d="M94.4342 30.757L95.1846 32.6905L93.9326 33.1764C94.1597 33.1977 94.3865 33.2495 94.6129 33.3318C94.8435 33.4246 95.0664 33.5448 95.2817 33.6922C95.501 33.8502 95.6949 34.0364 95.8631 34.2507C96.0461 34.4714 96.1929 34.7245 96.3036 35.0097C96.5661 35.6859 96.6337 36.2675 96.5066 36.7545C96.3837 37.252 96.1258 37.6682 95.733 38.003C96.2669 38.0632 96.7553 38.2566 97.1982 38.5832C97.6556 38.9162 98.0013 39.3838 98.235 39.9861C98.5835 40.8841 98.5892 41.6661 98.2519 42.3319C97.9252 42.9936 97.2335 43.5295 96.177 43.9395L90.7094 46.0616L89.8974 43.9696L94.8896 42.0321C95.5553 41.7738 95.9824 41.4804 96.171 41.1519C96.3636 40.8339 96.3677 40.4373 96.1832 39.9618C96.0192 39.5392 95.716 39.2435 95.2736 39.0748C94.8419 38.902 94.3407 38.9263 93.7702 39.1477L88.778 41.0853L87.9661 38.9933L92.9583 37.0558C93.6239 36.7974 94.051 36.504 94.2396 36.1755C94.4323 35.8576 94.4363 35.4609 94.2518 34.9855C94.0878 34.5628 93.7846 34.2672 93.3423 34.0985C92.9105 33.9256 92.4093 33.95 91.8388 34.1714L86.8466 36.1089L86.0347 34.017L94.4342 30.757Z" fill="black"/>
</svg>
