<svg width="108" height="108" viewBox="0 0 108 108" fill="none" xmlns="http://www.w3.org/2000/svg">
<path d="M102.986 54.4655L102.942 56.709L96.3475 56.5818L99.9885 59.9847L99.9386 62.5682L96.1473 59.0263L90.9237 62.7342L90.9743 60.1167L94.6961 57.5701L93.645 56.5296L91.0445 56.4794L91.0878 54.2358L102.986 54.4655Z" fill="black"/>
<path d="M98.588 65.4975L98.0423 67.6741L89.3028 65.483L89.8485 63.3063L98.588 65.4975ZM99.1397 66.7925C99.2361 66.4077 99.437 66.1193 99.7422 65.9271C100.056 65.7486 100.405 65.7076 100.79 65.8041C101.174 65.9005 101.457 66.1 101.639 66.4025C101.828 66.7187 101.874 67.0692 101.778 67.454C101.682 67.8387 101.477 68.1203 101.163 68.2988C100.858 68.491 100.513 68.5389 100.128 68.4424C99.7433 68.3459 99.4562 68.1396 99.2668 67.8234C99.0856 67.5209 99.0432 67.1773 99.1397 66.7925Z" fill="black"/>
<path d="M86.8391 71.2347C87.2394 70.2474 87.7412 69.6131 88.3444 69.3318C88.9581 69.0548 89.7639 69.1186 90.7616 69.5231L94.7002 71.12L95.1473 70.0172L96.8803 70.7198L96.4332 71.8226L98.3237 72.5891L97.4806 74.6687L95.59 73.9022L94.7724 75.9188L93.0394 75.2161L93.8571 73.1996L90.2336 71.7304C89.7609 71.5388 89.3855 71.4844 89.1073 71.5673C88.8354 71.665 88.6036 71.9501 88.412 72.4227C88.2842 72.7378 88.1722 73.0593 88.076 73.3871L86.343 72.6845C86.4029 72.4764 86.4723 72.26 86.5512 72.0352C86.6154 71.8166 86.7114 71.5498 86.8391 71.2347Z" fill="black"/>
<path d="M88.1731 88.9457L86.5691 90.5151L81.9562 85.8005L82.1664 90.7797L80.3194 92.5868L80.0994 87.4031L73.7752 86.3845L75.6465 84.5536L80.0858 85.3473L80.0658 83.8684L78.2468 82.0093L79.8507 80.44L88.1731 88.9457Z" fill="black"/>
<path d="M77.3974 93.6386L75.4867 94.8153L70.7621 87.1434L72.6729 85.9667L77.3974 93.6386ZM76.8878 94.9507C77.2255 94.7427 77.5708 94.6765 77.9235 94.7522C78.2725 94.8434 78.551 95.0579 78.759 95.3956C78.967 95.7334 79.0302 96.0738 78.9486 96.4168C78.8633 96.7755 78.6518 97.0588 78.3141 97.2668C77.9763 97.4748 77.6329 97.5332 77.2839 97.442C76.9312 97.3663 76.6509 97.1597 76.4429 96.8219C76.2349 96.4841 76.1735 96.1359 76.2588 95.7773C76.3404 95.4343 76.55 95.1587 76.8878 94.9507Z" fill="black"/>
<path d="M64.9362 89.5354C65.9126 89.1095 66.7149 89.0068 67.3428 89.2275C67.9753 89.4585 68.5068 90.0675 68.9372 91.0544L70.6366 94.9498L71.7273 94.474L72.475 96.188L71.3843 96.6639L72.1999 98.5337L70.1431 99.4309L69.3274 97.5611L67.333 98.4311L66.5853 96.7171L68.5797 95.8471L67.0164 92.2632C66.8125 91.7958 66.5821 91.4944 66.3252 91.3592C66.0625 91.2388 65.6975 91.2806 65.23 91.4845C64.9184 91.6205 64.6135 91.772 64.3155 91.9391L63.5678 90.2251C63.7561 90.1182 63.9571 90.012 64.1707 89.9065C64.3694 89.7951 64.6245 89.6714 64.9362 89.5354Z" fill="black"/>
<path d="M59.2327 102.75L57.0027 103.001L56.2669 96.4458L53.3691 100.5L50.8013 100.789L53.8171 96.5668L49.4583 91.8728L52.06 91.5807L55.0712 94.9378L55.9654 93.7597L55.6753 91.1749L57.9053 90.9246L59.2327 102.75Z" fill="black"/>
<path d="M47.6797 99.8116L45.4497 99.5613L46.4548 90.6075L48.6848 90.8579L47.6797 99.8116ZM46.4699 100.531C46.8641 100.575 47.1768 100.736 47.408 101.013C47.6267 101.3 47.7139 101.64 47.6697 102.034C47.6254 102.429 47.4655 102.736 47.1899 102.956C46.9018 103.186 46.5607 103.278 46.1665 103.234C45.7723 103.19 45.4658 103.024 45.2471 102.738C45.0159 102.461 44.9224 102.125 44.9667 101.731C45.0109 101.337 45.1771 101.025 45.4652 100.795C45.7408 100.575 46.0757 100.487 46.4699 100.531Z" fill="black"/>
<path d="M40.4203 88.9029C41.4516 89.1698 42.1464 89.5837 42.5046 90.1447C42.86 90.7167 42.9028 91.5238 42.633 92.5661L41.5682 96.6806L42.7202 96.9787L42.2517 98.7891L41.0996 98.4909L40.5885 100.466L38.4161 99.9036L38.9272 97.9287L36.8206 97.3835L37.2891 95.5731L39.3957 96.1183L40.3754 92.333C40.5032 91.8393 40.5077 91.46 40.3889 91.1951C40.2564 90.9384 39.9432 90.7461 39.4495 90.6184C39.1203 90.5332 38.7869 90.4644 38.4492 90.4122L38.9178 88.6018C39.1319 88.6338 39.3556 88.6742 39.5889 88.7228C39.814 88.7577 40.0911 88.8177 40.4203 88.9029Z" fill="black"/>
<path d="M27.797 95.8081L25.8863 94.6315L29.345 89.015L24.5645 90.4234L22.3643 89.0685L27.3408 87.6011L26.7993 81.2183L29.0285 82.591L29.3322 87.0905L30.7624 86.7134L32.1262 84.4987L34.037 85.6754L27.797 95.8081Z" fill="black"/>
<path d="M20.6621 86.5192L19.0581 84.9498L25.3593 78.5097L26.9633 80.0791L20.6621 86.5192ZM19.2656 86.342C19.5492 86.6195 19.6969 86.9384 19.7089 87.2989C19.7048 87.6596 19.564 87.9817 19.2866 88.2653C19.0092 88.5488 18.6942 88.6925 18.3416 88.6963C17.973 88.7003 17.6469 88.5636 17.3634 88.2862C17.0799 88.0088 16.9401 87.6898 16.9442 87.3291C16.9323 86.9686 17.065 86.6465 17.3424 86.363C17.6198 86.0795 17.9429 85.9357 18.3115 85.9317C18.6641 85.9278 18.9821 86.0646 19.2656 86.342Z" fill="black"/>
<path d="M21.6148 73.4553C22.2664 74.2982 22.5619 75.051 22.5013 75.7139C22.4317 76.3836 21.971 77.0477 21.1192 77.7062L17.7567 80.3055L18.4845 81.247L17.0051 82.3907L16.2772 81.4492L14.6633 82.6969L13.2908 80.9215L14.9048 79.6739L13.574 77.9523L15.0534 76.8086L16.3843 78.5302L19.4777 76.1388C19.8812 75.8269 20.1172 75.5299 20.1856 75.2478C20.2381 74.9637 20.1085 74.6198 19.7965 74.2163C19.5886 73.9473 19.3672 73.6888 19.1324 73.4405L20.6118 72.2969C20.7615 72.4534 20.9135 72.6223 21.0681 72.8037C21.2246 72.9691 21.4069 73.1864 21.6148 73.4553Z" fill="black"/>
<path d="M7.37902 71.1663L6.59068 69.0653L12.7663 66.7481L8.12592 64.9304L7.21814 62.5111L12.0495 64.4024L15.5344 59.0275L16.4541 61.4787L13.9359 65.2198L15.297 65.7985L17.7322 64.8848L18.5205 66.9858L7.37902 71.1663Z" fill="black"/>
<path d="M7.4387 59.4877L7.13704 57.2641L16.0653 56.0529L16.3669 58.2765L7.4387 59.4877ZM6.44558 58.4902C6.49891 58.8832 6.41956 59.2257 6.20753 59.5175C5.98274 59.7996 5.67382 59.9673 5.28075 60.0206C4.88769 60.074 4.55086 59.9938 4.27027 59.7803C3.97693 59.557 3.8036 59.2489 3.75027 58.8558C3.69695 58.4627 3.78268 58.1251 4.00746 57.843C4.21949 57.5512 4.52204 57.3786 4.9151 57.3253C5.30817 57.272 5.65137 57.357 5.94472 57.5802C6.2253 57.7938 6.39226 58.0971 6.44558 58.4902Z" fill="black"/>
<path d="M16.2238 49.5975C16.2156 50.6628 15.9829 51.4374 15.5258 51.9212C15.0574 52.4049 14.2849 52.6426 13.2083 52.6343L8.95839 52.6015L8.9492 53.7915L7.07925 53.777L7.08844 52.5871L5.0485 52.5713L5.06583 50.3274L7.10577 50.3432L7.12256 48.1672L8.99251 48.1817L8.97571 50.3576L12.8856 50.3878C13.3956 50.3917 13.7646 50.3039 13.9927 50.1243C14.2095 49.9333 14.3199 49.5828 14.3238 49.0728C14.3264 48.7328 14.312 48.3927 14.2807 48.0525L16.1506 48.0669C16.1716 48.2824 16.1869 48.5092 16.1964 48.7473C16.2173 48.9741 16.2264 49.2575 16.2238 49.5975Z" fill="black"/>
<path d="M6.42682 38.9298L7.10339 36.7902L13.3925 38.7789L10.8635 34.4846L11.6426 32.0208L14.2764 36.4909L20.3358 34.4132L19.5465 36.9094L15.256 38.2984L15.9697 39.5939L18.4496 40.3781L17.7731 42.5176L6.42682 38.9298Z" fill="black"/>
<path d="M13.6646 29.7949L14.7988 27.8586L22.5732 32.4127L21.4389 34.349L13.6646 29.7949ZM13.4983 28.3971C13.2978 28.7394 13.0241 28.96 12.6772 29.0588C12.3262 29.1422 11.9796 29.0837 11.6374 28.8832C11.2951 28.6827 11.0794 28.4119 10.9903 28.0707C10.8971 27.714 10.9508 27.3646 11.1513 27.0223C11.3518 26.68 11.6275 26.4672 11.9785 26.3838C12.3254 26.2849 12.6699 26.3357 13.0122 26.5362C13.3545 26.7367 13.5722 27.0153 13.6653 27.372C13.7545 27.7131 13.6988 28.0548 13.4983 28.3971Z" fill="black"/>
<path d="M26.5487 27.57C25.888 28.4057 25.2287 28.8741 24.5708 28.9752C23.9041 29.0693 23.1484 28.7825 22.3038 28.1147L18.97 25.4788L18.2319 26.4122L16.7651 25.2524L17.5031 24.319L15.9029 23.0537L17.2947 21.2935L18.8949 22.5587L20.2445 20.8518L21.7114 22.0116L20.3618 23.7185L23.4289 26.1436C23.829 26.4599 24.1741 26.6172 24.4644 26.6155C24.7528 26.598 25.0552 26.3891 25.3715 25.9891C25.5823 25.7224 25.7799 25.4451 25.9641 25.1573L27.431 26.3171C27.3152 26.5001 27.188 26.6884 27.0492 26.8822C26.9264 27.074 26.7596 27.3033 26.5487 27.57Z" fill="black"/>
<path d="M25.2325 13.2134L27.0757 11.9335L30.8379 17.3513L31.4609 12.4068L33.5834 10.9329L32.9359 16.0807L39.0017 18.1397L36.8513 19.6329L32.6065 18.11L32.3796 19.5715L33.8631 21.7079L32.02 22.9879L25.2325 13.2134Z" fill="black"/>
<path d="M36.7285 10.3061L38.8112 9.4707L42.1653 17.8331L40.0826 18.6685L36.7285 10.3061ZM37.4534 9.09948C37.0852 9.24714 36.7338 9.25379 36.399 9.11941C36.0706 8.9703 35.8325 8.71167 35.6849 8.34351C35.5372 7.97536 35.5327 7.62916 35.6713 7.30493C35.8162 6.96596 36.0727 6.72264 36.4408 6.57498C36.809 6.42731 37.1573 6.42803 37.4857 6.57715C37.8205 6.71152 38.0617 6.96278 38.2094 7.33094C38.357 7.6991 38.3584 8.05266 38.2135 8.39163C38.0749 8.71586 37.8216 8.95181 37.4534 9.09948Z" fill="black"/>
<path d="M48.1817 16.4717C47.1474 16.7269 46.3394 16.6927 45.7577 16.3693C45.1732 16.0349 44.7521 15.345 44.4942 14.2997L43.4763 10.1734L42.321 10.4584L41.8731 8.64279L43.0285 8.35778L42.5399 6.37715L44.7186 5.83972L45.2072 7.82035L47.3198 7.29919L47.7677 9.11477L45.655 9.63592L46.5915 13.4321C46.7136 13.9273 46.8899 14.2632 47.1202 14.4398C47.3588 14.6027 47.7257 14.6231 48.2209 14.501C48.551 14.4196 48.877 14.3216 49.199 14.2072L49.6469 16.0228C49.4432 16.0963 49.2272 16.1671 48.9989 16.2351C48.7842 16.3114 48.5118 16.3903 48.1817 16.4717Z" fill="black"/>
<path d="M56.257 4.33878L58.4972 4.46858L58.1157 11.0535L61.6565 7.54648L64.2361 7.69595L60.5507 11.3479L64.0544 16.7105L61.4408 16.5591L59.0396 12.7418L57.9593 13.752L57.8089 16.3487L55.5686 16.2189L56.257 4.33878Z" fill="black"/>
<path d="M66.795 9.05669L68.9517 9.67639L66.4635 18.336L64.3068 17.7163L66.795 9.05669ZM68.1081 8.5496C67.7269 8.44005 67.4454 8.22947 67.2637 7.91784C67.0961 7.59846 67.067 7.24815 67.1766 6.8669C67.2861 6.48566 67.4952 6.20965 67.8036 6.03887C68.1262 5.86033 68.478 5.82583 68.8593 5.93537C69.2405 6.04492 69.515 6.25938 69.6826 6.57877C69.8643 6.89039 69.9004 7.23682 69.7908 7.61807C69.6813 7.99931 69.4652 8.2792 69.1427 8.45774C68.8342 8.62852 68.4894 8.65914 68.1081 8.5496Z" fill="black"/>
<path d="M72.3039 21.0639C71.3322 20.6271 70.7171 20.102 70.4585 19.4887C70.2046 18.8651 70.2984 18.0622 70.7399 17.0803L72.4826 13.204L71.3973 12.716L72.1641 11.0105L73.2495 11.4985L74.086 9.63787L76.1326 10.5581L75.2961 12.4186L77.2807 13.3109L76.5139 15.0165L74.5293 14.1242L72.9259 17.6903C72.7168 18.1555 72.6485 18.5286 72.7209 18.8097C72.8083 19.0851 73.0846 19.3274 73.5498 19.5365C73.8599 19.6759 74.1769 19.7998 74.501 19.9083L73.7342 21.6138C73.5285 21.5462 73.3148 21.4687 73.0931 21.3815C72.877 21.3092 72.614 21.2033 72.3039 21.0639Z" fill="black"/>
<path d="M86.0009 16.3847L87.688 17.8643L83.3388 22.8233L88.2875 22.2341L90.2302 23.9379L85.0784 24.5524L84.5449 30.9359L82.5766 29.2097L83.0296 24.7228L81.5565 24.8554L79.8415 26.8109L78.1544 25.3313L86.0009 16.3847Z" fill="black"/>
<path d="M91.5085 26.7229L92.8286 28.5376L85.5424 33.8377L84.2223 32.023L91.5085 26.7229ZM92.8559 27.1302C92.6226 26.8094 92.5301 26.4703 92.5784 26.1128C92.6425 25.7579 92.8349 25.4637 93.1557 25.2304C93.4765 24.997 93.811 24.9078 94.1593 24.9628C94.5235 25.0203 94.8222 25.2094 95.0555 25.5302C95.2889 25.8509 95.3735 26.1888 95.3094 26.5438C95.2611 26.9012 95.0765 27.1966 94.7557 27.43C94.435 27.6633 94.0925 27.7513 93.7284 27.6938C93.3801 27.6388 93.0893 27.451 92.8559 27.1302Z" fill="black"/>
<path d="M88.3965 39.4408C87.8958 38.5005 87.7309 37.7087 87.902 37.0655C88.0831 36.417 88.6488 35.8396 89.5991 35.3336L93.3504 33.336L92.7911 32.2856L94.4416 31.4067L95.001 32.457L96.8016 31.4982L97.8563 33.4789L96.0557 34.4377L97.0785 36.3584L95.4279 37.2373L94.4051 35.3167L90.954 37.1545C90.5038 37.3942 90.2213 37.6473 90.1065 37.9139C90.007 38.1852 90.0771 38.5459 90.3168 38.996C90.4766 39.2962 90.6514 39.5883 90.8412 39.8724L89.1906 40.7513C89.0694 40.5719 88.9479 40.3798 88.826 40.1751C88.6995 39.9857 88.5563 39.7409 88.3965 39.4408Z" fill="black"/>
</svg>
