<svg xmlns="http://www.w3.org/2000/svg" xmlns:xlink="http://www.w3.org/1999/xlink" version="1.1" width="1080pt" height="1080pt" viewBox="0 0 1080 1080">
<defs>
<clipPath id="clip_0">
<path transform="matrix(1,0,0,-1,0,1080)" d="M0 1080H1080V0H0Z"/>
</clipPath>
</defs>
<g id="layer_1" data-name="">
<g clip-path="url(#clip_0)">
<path transform="matrix(1,0,0,-1,986.001,440.62739)" d="M0 0 .166 .456C.166 .456-39.981-56.481-57.828-52.822-67.367-50.865-51.784-18.468-26.825 .456-14.757 9.604-1.639 15.68 9.732 19.68 6.993 14.35 3.614 7.604 0 0M-640.375-65.389-640.911-65.139C-640.911-65.139-641.018-92.753-650.354-116.779-658.26-137.124-671.101-155.874-677.81-152.47-684.638-149.009-688.941-125.514-664.082-78.341-657.756-66.335-647.986-57.313-639.441-51.133ZM-922.172-214.02C-975.866 8.307-821.269 102.569-804.398 111.409-818.266 80.387-845.649 3.979-871.897-72.438-890.422-126.359-903.597-150.934-922.172-214.02M-730.393 34.389C-742.808 9.851-757.292-7.662-771.251-20.506L-802.196-27.081C-780.017 43.929-755.542 102.55-755.542 102.55L-781.384 118.509C-736.967 136.119-682.201 129.635-730.393 34.389M-575.57 50.085C-574.315 51.334-561.671 55.71-538.5 49.589-521.566 45.114-508.495 38.132-500.54 33.107-547.466 34.279-568.51 45.232-575.57 50.085M68.322-19.329C68.322-19.329 40.743-47.02 28.316-44.773 18.822-43.057 47.368 2.609 47.368 2.609L24.796 24.163C33.745 26.356 39.612 26.968 39.612 26.968L23.512 71.223C23.512 71.223-33.946 66.783-76.468 9.438L-76.479 9.483C-76.617 9.781-126.727-64.319-141.258-64.898-144.754-65.037-140.075-46.092-133.006-30.303-124.839-12.06-115.409 3.218-115.409 3.218L-150.406 20.367C-150.406 20.367-161.581-.767-172.682-27.973L-198.553-25.219C-185.575 9.502-174.414 31.63-174.414 31.63L-217.055 51.591C-217.055 51.591-230.356 18.76-245.572-24.812-247.967-31.67-250.527-39.373-253.142-47.467V-47.462C-253.142-47.462-257.183-56.653-261.684-61.769-274.05-75.821-297.574-99.011-299.687-92.128-301.901-84.918-264.445-21.17-264.445-21.17L-301.376-1.667C-301.376-1.667-313.372-21.205-326.604-46.607-326.651-46.679-362.937-101.169-377.358-97.225-381.865-95.992-371.221-63.008-352.648-31.332-323.731 17.985-273.695 85.476-273.695 85.476-273.695 85.476-366.588 44.763-450.453 35.301-456.062 45.146-477.573 72.8-530.679 82.543-600.098 95.284-628.419 73.465-636.042 63.121-638.583 59.675-641.94 16.886-556.241-1.378-532.891-6.354-508.05-7.646-484.688-7.499-484.136-16.417-484.176-26.935-485.225-39.282L-484.415-39.74C-484.415-39.74-484.753-40.014-485.34-40.504-486.201-50.13-487.651-60.812-489.906-72.687-494.855-98.753-520.107-129.557-525.598-127.597-531.089-125.637-533.674-106.751-522.853-83.669-514.171-65.145-490.3-44.642-485.34-40.504-485.305-40.102-485.257-39.681-485.225-39.282L-524.912-18.462C-524.976-17.602-528.821-23.613-539.181-34.056V-34.054C-539.181-34.054-543.058-38.081-545.05-40.36-553.333-48.301-569.913-61.013-591.834-61.769-621.405-62.788-633.878-53.757-637.787-49.958-629.012-43.861-621.92-40.885-621.92-40.885L-653.952 4.416-701.06-5.593C-690.193 13.209-681.01 34.019-675.696 56.225-644.573 186.308-770.042 195.266-847.187 138.969-1125.039-63.796-899.908-372.867-899.908-372.867-899.908-372.867-818.421-83.505-816.23-75.322L-785.974-103.85C-785.974-103.85-756.463-81.078-727.315-44.092L-694.293-39.381C-705.441-54.554-716.038-72.657-721.738-92.069-737.669-146.315-728.877-206.091-697.028-212.873-656.143-221.579-626.135-179.122-611.917-141.489-606.149-126.222-603.406-112.24-602.098-101.853-598.816-102.011-595.288-102.128-591.491-102.202-585.705-102.311-580.292-101.529-575.232-100.128-575.779-102.778-576.272-105.469-576.65-108.24-582.208-148.851-578.997-182.24-547.562-190.745-518.391-198.638-471.138-145.958-451.469-89.16-439.776-55.391-438.806-26.653-441.176-5.4-410.151-2.681-386.885 1.813-381.643 2.875-381.656 2.858-417.681-46.055-432.901-96.147-463.569-197.083-412.678-177.427-392.097-161.219-380.83-152.347-369.078-138.832-359.078-125.878-363.104-144.261-361.467-158.029-349.106-160.766-330.312-164.927-297.799-139.641-274.921-118.883-279.216-133.572-282.034-143.51-282.034-143.51L-238.414-157.238C-238.414-157.238-225.823-108.145-211.776-63.708L-186.377-66.322C-187.994-71.753-189.452-77.167-190.661-82.468-196.518-108.129-191.624-133.753-179.68-134.633-160.308-136.059-134.797-113.873-112.956-89.6-113.449-110.371-108.385-123.224-104.354-123.224-62.767-123.224-35.303-83.417-25.753-67.024-30.879-87.841-30.593-104.633-18.165-108.14 23.096-119.788 91.97-38.421 91.97-38.421Z" fill-rule="evenodd"/>
<path transform="matrix(1,0,0,-1,206.9346,777.38088)" d="M0 0 833.602 179.757 11.673 57.065Z" fill-rule="evenodd"/>
<path transform="matrix(1,0,0,-1,732.6689,748.7158)" d="M0 0V62.079H13.66V34.942L38.846 62.079H55.335L30.064 35.747 56.494 0H40.09L20.844 26.429 13.66 18.978V0Z"/>
<path transform="matrix(1,0,0,-1,850.8887,686.6367)" d="M0 0V-62.079H-13.489V-21.368L-40.626-62.079H-53.481V0H-40.004V-40.712L-12.685 0Z"/>
<path transform="matrix(1,0,0,-1,879.4521,717.94436)" d="M0 0H10.818C14.185 0 16.831 .89 18.758 2.658 20.673 4.439 21.637 6.744 21.637 9.586 21.637 12.599 20.661 14.916 18.71 16.538 16.758 18.172 14.038 18.978 10.55 18.978H0ZM-13.66-30.771V31.308H11.709C19.039 31.308 24.832 29.332 29.089 25.368 33.345 21.404 35.468 16.172 35.468 9.671 35.468 2.756 33.102-2.61 28.381-6.428 23.649-10.245 17.648-12.148 10.367-12.148H0V-30.771Z"/>
<path transform="matrix(1,0,0,-1,941.873,731.50686)" d="M0 0C3.55-3.793 8.05-5.684 13.489-5.684 18.929-5.684 23.393-3.806 26.881-.049 30.369 3.707 32.113 8.33 32.113 13.83 32.113 19.27 30.333 23.88 26.796 27.673 23.247 31.454 18.746 33.345 13.307 33.345 7.867 33.345 3.403 31.467-.085 27.71-3.573 23.953-5.317 19.331-5.317 13.83-5.317 8.391-3.536 3.78 0 0M36.943-8.916C30.65-15.16 22.771-18.271 13.307-18.271 3.854-18.271-4-15.173-10.232-8.965-16.477-2.757-19.6 4.842-19.6 13.83-19.6 22.758-16.44 30.345-10.146 36.576-3.854 42.821 4.025 45.932 13.489 45.932 22.941 45.932 30.796 42.833 37.028 36.625 43.273 30.417 46.396 22.819 46.396 13.83 46.396 4.902 43.236-2.684 36.943-8.916"/>
<path transform="matrix(1,0,0,-1,1013.7227,736.73928)" d="M0 0H16.221C22.673 0 25.893 2.305 25.893 6.915 25.893 11.403 22.526 13.66 15.782 13.66H0ZM0 25.002H12.586C19.148 25.002 22.429 27.259 22.429 31.747 22.429 33.82 21.66 35.394 20.124 36.491 18.587 37.589 16.367 38.138 13.477 38.138H0ZM-13.307-11.977V50.103H15.514C22.673 50.103 28.076 48.273 31.747 44.602 34.589 41.772 36.003 38.187 36.003 33.882 36.003 28.027 33.283 23.551 27.844 20.478 31.686 19.002 34.589 17.075 36.54 14.672 38.491 12.281 39.467 9.074 39.467 5.049 39.467-.513 37.394-4.732 33.259-7.635 29.112-10.525 23.441-11.977 16.221-11.977Z"/>
</g>
</g>
</svg>
