<svg width="55" height="55" viewBox="0 0 55 55" fill="none" xmlns="http://www.w3.org/2000/svg">
<path d="M14.7093 24.3023H9.59302C3.40233 24.3023 0 20.9 0 14.7093V9.59302C0 3.40233 3.40233 0 9.59302 0H14.7093C20.9 0 24.3023 3.40233 24.3023 9.59302V14.7093C24.3023 20.9 20.9 24.3023 14.7093 24.3023ZM9.59302 3.83721C5.55116 3.83721 3.83721 5.55116 3.83721 9.59302V14.7093C3.83721 18.7512 5.55116 20.4651 9.59302 20.4651H14.7093C18.7512 20.4651 20.4651 18.7512 20.4651 14.7093V9.59302C20.4651 5.55116 18.7512 3.83721 14.7093 3.83721H9.59302ZM45.407 24.3023H40.2907C34.1 24.3023 30.6977 20.9 30.6977 14.7093V9.59302C30.6977 3.40233 34.1 0 40.2907 0H45.407C51.5977 0 55 3.40233 55 9.59302V14.7093C55 20.9 51.5977 24.3023 45.407 24.3023ZM40.2907 3.83721C36.2488 3.83721 34.5349 5.55116 34.5349 9.59302V14.7093C34.5349 18.7512 36.2488 20.4651 40.2907 20.4651H45.407C49.4488 20.4651 51.1628 18.7512 51.1628 14.7093V9.59302C51.1628 5.55116 49.4488 3.83721 45.407 3.83721H40.2907ZM45.407 55H40.2907C34.1 55 30.6977 51.5977 30.6977 45.407V40.2907C30.6977 34.1 34.1 30.6977 40.2907 30.6977H45.407C51.5977 30.6977 55 34.1 55 40.2907V45.407C55 51.5977 51.5977 55 45.407 55ZM40.2907 34.5349C36.2488 34.5349 34.5349 36.2488 34.5349 40.2907V45.407C34.5349 49.4488 36.2488 51.1628 40.2907 51.1628H45.407C49.4488 51.1628 51.1628 49.4488 51.1628 45.407V40.2907C51.1628 36.2488 49.4488 34.5349 45.407 34.5349H40.2907ZM14.7093 55H9.59302C3.40233 55 0 51.5977 0 45.407V40.2907C0 34.1 3.40233 30.6977 9.59302 30.6977H14.7093C20.9 30.6977 24.3023 34.1 24.3023 40.2907V45.407C24.3023 51.5977 20.9 55 14.7093 55ZM9.59302 34.5349C5.55116 34.5349 3.83721 36.2488 3.83721 40.2907V45.407C3.83721 49.4488 5.55116 51.1628 9.59302 51.1628H14.7093C18.7512 51.1628 20.4651 49.4488 20.4651 45.407V40.2907C20.4651 36.2488 18.7512 34.5349 14.7093 34.5349H9.59302Z" fill="#2289FF"/>
</svg>
