<svg width="55" height="55" viewBox="0 0 55 55" fill="none" xmlns="http://www.w3.org/2000/svg">
<path d="M20.625 9.16667C20.625 4.10437 28.3204 0 37.8125 0C47.3046 0 55 4.10437 55 9.16667C55 14.229 47.3046 18.3333 37.8125 18.3333C28.3204 18.3333 20.625 14.229 20.625 9.16667ZM37.8125 22.9167C35.459 22.9167 33.2269 22.6531 31.1873 22.1948C28.0729 19.8596 22.9694 18.3333 17.1875 18.3333C7.69542 18.3333 0 22.4377 0 27.5C0 32.5623 7.69542 36.6667 17.1875 36.6667C26.6796 36.6667 34.375 32.5623 34.375 27.5C34.375 27.4335 34.359 27.3694 34.3567 27.3029H34.375V32.0833C34.375 37.1456 26.6796 41.25 17.1875 41.25C7.69542 41.25 0 37.1456 0 32.0833V36.6667C0 41.729 7.69542 45.8333 17.1875 45.8333C26.6796 45.8333 34.375 41.729 34.375 36.6667V41.25C34.375 46.3123 26.6796 50.4167 17.1875 50.4167C7.69542 50.4167 0 46.3123 0 41.25V45.8333C0 50.8956 7.69542 55 17.1875 55C26.6796 55 34.375 50.8956 34.375 45.8333V45.65C35.4865 45.7692 36.6346 45.8333 37.8125 45.8333C47.3046 45.8333 55 41.729 55 36.6667V32.0833C55 36.9394 47.9142 40.904 38.9583 41.2202V36.6369C47.9142 36.3206 55 32.3583 55 27.5V22.9167C55 27.7727 47.9142 31.7373 38.9583 32.0535V27.4702C47.9142 27.154 55 23.1917 55 18.3333V13.75C55 18.8123 47.3046 22.9167 37.8125 22.9167Z" fill="#2289FF"/>
</svg>
