<svg width="55" height="55" viewBox="0 0 55 55" fill="none" xmlns="http://www.w3.org/2000/svg">
<g clip-path="url(#clip0_106_235)">
<path d="M42.5814 4.90423L28.2242 0.116939C27.7541 -0.0396306 27.2459 -0.0396306 26.7758 0.116939L12.4185 4.90423C10.1358 5.6625 8.1501 7.12086 6.74354 9.07211C5.33698 11.0234 4.58111 13.3682 4.58332 15.7736V27.5001C4.58332 44.8319 25.6667 54.4042 26.5696 54.803C26.8625 54.9331 27.1795 55.0004 27.5 55.0004C27.8205 55.0004 28.1375 54.9331 28.4304 54.803C29.3333 54.4042 50.4166 44.8319 50.4166 27.5001V15.7736C50.4189 13.3682 49.663 11.0234 48.2564 9.07211C46.8499 7.12086 44.8642 5.6625 42.5814 4.90423ZM45.8333 27.5001C45.8333 40.0011 31.3523 48.2007 27.5 50.1624C23.6431 48.2076 9.16665 40.0332 9.16665 27.5001V15.7736C9.16678 14.3305 9.62103 12.924 10.465 11.7534C11.309 10.5829 12.5 9.70755 13.8692 9.25152L27.5 4.70715L41.1308 9.25152C42.5 9.70755 43.6909 10.5829 44.5349 11.7534C45.3789 12.924 45.8332 14.3305 45.8333 15.7736V27.5001Z" fill="#2289FF"/>
<path d="M35.0625 19.0209L25.465 28.6459L20.3225 23.2834C20.1161 23.0577 19.8667 22.8757 19.5888 22.7479C19.311 22.6202 19.0104 22.5493 18.7048 22.5395C18.3992 22.5297 18.0947 22.5812 17.8092 22.6909C17.5238 22.8007 17.2632 22.9664 17.0428 23.1784C16.8224 23.3903 16.6467 23.6443 16.526 23.9252C16.4052 24.2062 16.3419 24.5084 16.3398 24.8142C16.3377 25.12 16.3968 25.4231 16.5137 25.7057C16.6305 25.9883 16.8028 26.2446 17.0202 26.4596L22.3048 31.9596C22.6989 32.3853 23.1752 32.7266 23.705 32.963C24.2348 33.1993 24.807 33.3257 25.3871 33.3346H25.4627C26.0312 33.3365 26.5943 33.2254 27.1195 33.0079C27.6447 32.7903 28.1215 32.4706 28.5221 32.0673L38.3121 22.2773C38.5259 22.064 38.6956 21.8106 38.8115 21.5316C38.9274 21.2527 38.9872 20.9536 38.9875 20.6515C38.9878 20.3495 38.9287 20.0503 38.8134 19.7711C38.698 19.4919 38.5289 19.2381 38.3155 19.0243C38.1021 18.8105 37.8487 18.6408 37.5698 18.5249C37.2908 18.409 36.9918 18.3492 36.6897 18.3489C36.3876 18.3486 36.0885 18.4077 35.8093 18.523C35.5301 18.6383 35.2763 18.8075 35.0625 19.0209Z" fill="#2289FF"/>
</g>
<defs>
<clipPath id="clip0_106_235">
<rect width="55" height="55" fill="white"/>
</clipPath>
</defs>
</svg>
