<svg width="55" height="55" viewBox="0 0 55 55" fill="none" xmlns="http://www.w3.org/2000/svg">
<g clip-path="url(#clip0_106_238)">
<path d="M39.0133 27.5C43.7569 23.305 46.9403 17.6273 48.0447 11.3919C48.2537 9.98747 48.1572 8.5545 47.7617 7.19082C47.3662 5.82714 46.681 4.56487 45.7531 3.49021C44.8109 2.39497 43.6434 1.51611 42.3303 0.913733C41.0172 0.311357 39.5894 -0.000324833 38.1447 2.54039e-07H16.9147C15.4703 0.000591548 14.043 0.312925 12.7303 0.91567C11.4177 1.51841 10.2505 2.39737 9.30869 3.4925C8.37991 4.56805 7.69432 5.83147 7.29881 7.19639C6.90329 8.56132 6.80717 9.99555 7.01703 11.401C8.11623 17.6342 11.2979 23.3099 16.0416 27.5C11.2996 31.6908 8.11959 37.3664 7.02161 43.599C6.81176 45.0044 6.90787 46.4387 7.30339 47.8036C7.69891 49.1685 8.38449 50.432 9.31328 51.5075C10.2546 52.602 11.421 53.4807 12.7328 54.0834C14.0447 54.6861 15.4711 54.9987 16.9147 55H38.1447C39.5887 54.9997 41.0155 54.6877 42.3278 54.0853C43.6401 53.483 44.8069 52.6044 45.7485 51.5098C46.6769 50.4359 47.3624 49.174 47.7579 47.8106C48.1534 46.4472 48.2497 45.0145 48.0402 43.6104C46.9376 37.3747 43.7558 31.6962 39.0133 27.5ZM40.5395 47.0227C40.243 47.3678 39.8756 47.6449 39.4624 47.8351C39.0491 48.0253 38.5997 48.1242 38.1447 48.125H16.9147C16.4596 48.1247 16.0099 48.0262 15.5962 47.8364C15.1826 47.6466 14.8147 47.3698 14.5177 47.025C14.2332 46.6997 14.023 46.3163 13.9015 45.9016C13.78 45.4869 13.7502 45.0507 13.8141 44.6233C14.5864 39.4808 17.8154 34.6248 23.4116 30.1996C23.8189 29.8778 24.148 29.468 24.3743 29.0008C24.6006 28.5337 24.7181 28.0214 24.7181 27.5023C24.7181 26.9832 24.6006 26.4709 24.3743 26.0038C24.148 25.5366 23.8189 25.1268 23.4116 24.805C17.8154 20.3775 14.5864 15.5215 13.8141 10.379C13.7502 9.95157 13.78 9.51539 13.9015 9.10067C14.023 8.68595 14.2332 8.30263 14.5177 7.97729C14.8145 7.63205 15.1823 7.35487 15.5959 7.16465C16.0096 6.97442 16.4594 6.87563 16.9147 6.875H38.1447C38.5997 6.87581 39.0491 6.97469 39.4624 7.16492C39.8756 7.35514 40.243 7.63223 40.5395 7.97729C40.8242 8.30125 41.0352 8.68316 41.1579 9.09663C41.2805 9.51011 41.3119 9.94528 41.2499 10.3721C40.4822 15.494 37.251 20.35 31.6456 24.8096C31.2408 25.1315 30.9138 25.5406 30.6891 26.0064C30.4644 26.4723 30.3477 26.9828 30.3477 27.5C30.3477 28.0172 30.4644 28.5277 30.6891 28.9935C30.9138 29.4594 31.2408 29.8685 31.6456 30.1904C37.251 34.65 40.4822 39.506 41.2499 44.6279C41.3129 45.0547 41.2819 45.4901 41.1592 45.9038C41.0365 46.3174 40.825 46.6992 40.5395 47.0227Z" fill="#2289FF"/>
<path d="M29.4158 34.8632L28.742 34.3246C28.3895 34.0456 27.953 33.8938 27.5034 33.8938C27.0538 33.8938 26.6173 34.0456 26.2647 34.3246L25.5772 34.87C23.4871 36.4013 21.8291 38.4477 20.7647 40.81C20.6437 41.1123 20.5987 41.4395 20.6335 41.7632C20.6683 42.0869 20.7819 42.3971 20.9645 42.6667C21.147 42.9363 21.3928 43.157 21.6804 43.3095C21.968 43.4621 22.2886 43.5418 22.6141 43.5417H32.3835C32.7085 43.54 33.0281 43.4588 33.3144 43.305C33.6007 43.1513 33.8449 42.9297 34.0258 42.6598C34.2067 42.3898 34.3187 42.0796 34.352 41.7564C34.3853 41.4331 34.3389 41.1066 34.2168 40.8054C33.1522 38.446 31.499 36.3997 29.4158 34.8632Z" fill="#2289FF"/>
</g>
<defs>
<clipPath id="clip0_106_238">
<rect width="55" height="55" fill="white"/>
</clipPath>
</defs>
</svg>
